<svg xmlns="http://www.w3.org/2000/svg" viewBox="0 0 34048 5312" width="34048" height="5312">
<!-- Diem decomposition L1_macro; coordinates are master-raster pixels (34048x5312). Derived from raster; raster is canonical. -->
<path id="L1_bridge" d="M9048,4961 L9044,4957 L9020,4965 L8969,4994 L8930,5004 L8915,5013 L8901,5037 L8759,5128 L8748,5158 L8773,5152 L8906,5075 L8944,5061 L8964,5060 L8999,5075 L9008,5068 L9044,5008 L9054,5000 Z M20763,4894 L20767,4916 L20784,4944 L20786,4965 L20773,4989 L20749,4999 L20745,5004 L20763,5045 L20821,5062 L20818,5035 L20809,5011 L20807,4982 L20813,4968 L20835,4946 L20844,4929 L20791,4901 Z M9464,4793 L9460,4790 L9417,4798 L9333,4832 L9312,4846 L9088,4928 L9086,4934 L9092,4940 L9097,4961 L9117,5003 L9124,5034 L9155,5039 L9247,5002 L9316,4964 L9325,4942 L9377,4874 L9409,4843 L9446,4824 Z M8808,4553 L8815,4572 L8836,4592 L8844,4628 L8853,4637 L8900,4630 L8904,4621 L8920,4611 L8945,4604 L8961,4582 L8935,4548 L8875,4553 L8826,4545 Z M10687,4385 L10664,4389 L10592,4449 L10550,4476 L10518,4489 L10505,4491 L10500,4487 L10500,4466 L10509,4459 L10515,4431 L10553,4364 L10548,4359 L10516,4365 L10465,4386 L10455,4396 L10398,4414 L10337,4441 L10304,4444 L10241,4470 L10227,4495 L10238,4506 L10257,4503 L10313,4507 L10392,4524 L10398,4533 L10423,4531 L10500,4502 L10514,4543 L10557,4525 L10565,4512 L10692,4463 L10696,4455 Z M12258,4215 L12240,4202 L12222,4197 L12215,4214 L12197,4223 L12044,4214 L12035,4378 L12154,4396 L12165,4403 L12234,4405 L12243,4259 L12248,4245 L12263,4230 Z M19980,4239 L19977,4250 L20133,4348 L20139,4359 L20157,4363 L20202,4390 L20201,4406 L20164,4470 L20162,4486 L20164,4491 L20198,4509 L20204,4519 L20225,4523 L20245,4536 L20261,4539 L20269,4532 L20310,4459 L20344,4470 L20372,4487 L20379,4496 L20392,4496 L20403,4482 L20441,4452 L20445,4435 L20439,4420 L20044,4185 L20029,4190 Z M13880,4080 L13862,4096 L13855,4117 L13843,4120 L13829,4336 L14006,4348 L14021,4135 L13912,4124 L13893,4086 Z M15297,4069 L15135,4077 L15027,4095 L14881,4109 L14851,4139 L14863,4151 L14888,4159 L14924,4159 L14972,4167 L14984,4160 L15014,4154 L15022,4156 L15030,4167 L15050,4167 L15061,4151 L15103,4126 L15124,4122 L15127,4113 L15298,4108 Z M20818,3984 L20667,3993 L20656,4092 L20636,4186 L20637,4194 L20650,4203 L20660,4239 L20672,4421 L20844,4411 Z M11710,3963 L11699,3947 L11642,3937 L11634,3929 L11564,3944 L11443,3995 L11255,4061 L11132,4114 L11096,4120 L10968,4172 L10948,4175 L10947,4185 L10929,4187 L10794,4244 L10782,4267 L10791,4275 L10849,4275 L10860,4281 L10944,4253 L10963,4251 L10968,4239 L10989,4236 L11065,4205 L11070,4208 L11110,4197 L11204,4156 L11251,4143 L11256,4135 L11667,3978 L11703,3972 Z M11901,3921 L11897,3981 L11934,3984 L11949,4002 L12001,4020 L12024,4036 L12046,4043 L12050,4035 L12053,3980 L12867,4037 L12871,4041 L12875,4037 L12877,3989 L12546,3974 Z M19463,3916 L19448,4008 L19568,4024 L19574,3995 L19586,3987 L19584,3961 L19525,3938 L19517,3929 Z M18647,3827 L18646,3834 L18654,3842 L18650,3885 L18989,3937 L19039,3939 L19055,3949 L19241,3980 L19279,3982 L19291,3870 L19231,3888 L19186,3895 L19059,3878 L19055,3883 L19053,3922 L19038,3936 L19025,3923 L19019,3905 L18959,3895 L18946,3878 L18919,3875 L18907,3886 L18845,3879 L18863,3853 L18658,3823 Z M21076,3725 L21100,4120 L21125,4121 L21337,4174 L21371,4178 L21367,4155 L21162,3750 L21154,3725 Z M15287,3692 L15282,3686 L15253,3689 L15140,3718 L15051,3734 L14470,3740 L14466,3736 L14443,3736 L14454,3747 L14451,3795 L14907,3785 L15083,3766 L15262,3724 L15287,3723 Z M19314,3579 L19309,3800 L19304,3835 L19298,3844 L19326,3852 L19443,3906 L19463,3910 L19494,3778 L19527,3604 L19527,3577 Z M18777,3418 L18682,3413 L18586,3422 L18582,3463 L18553,3592 L18550,3595 L18459,3583 L18455,3620 L18468,3703 L18468,3781 L18501,3793 L18511,3788 L18517,3744 L18549,3604 L18682,3633 L18702,3633 L18722,3574 L18745,3530 L18774,3441 Z M19158,3349 L19128,3350 L18977,3375 L18883,3404 L18845,3411 L18844,3420 L18854,3444 L18938,3517 L19073,3583 L19115,3593 Z M20812,3325 L20650,3353 L20671,3537 L20690,3532 L20730,3493 L20742,3488 L20772,3505 L20794,3509 L20791,3448 L20816,3393 Z M17638,3304 L17580,3300 L17577,3323 L17569,3333 L17427,3430 L17405,3436 L17405,3483 L17637,3494 Z M18388,3295 L18257,3298 L18083,3293 L18067,3299 L18062,3343 L18063,3736 L18083,3784 L18113,3795 L18211,3809 L18244,3640 L18242,3623 L18228,3593 L18230,3553 L18247,3538 L18401,3462 Z M17021,3263 L17020,3466 L17294,3480 L17295,3297 L17289,3291 L17267,3308 L17226,3377 L17154,3379 L17137,3373 L17055,3277 L17047,3258 L17027,3257 Z" fill="#9fb2cc" fill-opacity="0.45" stroke="#9fb2cc" stroke-width="6"/>
<path id="L1_ile_de_la_cite" d="M15759,4595 L15928,4619 L15945,4527 L15951,4524 L15994,4539 L16166,4625 L16181,4627 L16182,4650 L16174,4706 L16424,4663 L16395,4916 L16526,4882 L16543,4772 L16548,4767 L16667,4766 L16727,4785 L16736,4780 L16789,4690 L16809,4682 L16815,4689 L16819,4745 L16911,4762 L16926,4816 L16949,4868 L16971,4902 L16979,4929 L16995,4942 L17062,4926 L17104,4790 L17106,4760 L17202,4761 L17283,4755 L17288,4672 L17274,4656 L17286,4643 L17331,4649 L17562,4722 L17591,4726 L17601,4611 L17597,4550 L17363,4527 L17349,4512 L17358,4434 L17369,4404 L17422,4405 L17584,4423 L17612,4421 L17622,4405 L18009,4437 L18007,4387 L17997,4352 L17951,4301 L17955,4284 L18005,4203 L18012,4178 L17995,4157 L17988,4135 L17931,4087 L17822,4023 L17759,4003 L17756,3997 L17720,3984 L17667,3971 L17687,3746 L17710,3744 L17758,3766 L17941,3803 L17974,3805 L17982,3797 L17990,3773 L17983,3766 L17954,3765 L17758,3721 L17713,3715 L17701,3705 L17608,3696 L17409,3663 L17406,3659 L17298,3645 L17001,3633 L16905,3621 L16770,3617 L16708,3621 L16703,3615 L16150,3600 L16124,3597 L16118,3589 L16095,3589 L16085,3593 L16079,3646 L16380,3657 L16508,3655 L16658,3660 L16669,3671 L16802,3668 L16956,3679 L16938,4144 L17187,4171 L17196,4162 L17211,4162 L17223,4176 L17292,4182 L17291,4533 L17247,4530 L16763,4451 L16645,4423 L16639,4418 L16637,4396 L16631,4390 L16573,4374 L16530,4353 L16508,4351 L16503,4356 L16458,4339 L16348,4261 L16388,3933 L16061,3985 L16033,3986 L16023,4059 L16016,4076 L15976,4300 L15937,4296 L15928,4314 L15884,4367 L15763,4573 Z" fill="#8544d7" fill-opacity="0.45" stroke="#8544d7" stroke-width="6"/>
<path id="L1_ile_saint_louis" d="M19522,4677 L19510,4672 L19267,4644 L19252,4639 L18945,4606 L18892,4877 L18888,4873 L18809,4864 L18196,4813 L18195,4885 L18439,4910 L18430,5037 L18605,5052 L18606,5086 L18596,5185 L18617,5182 L18816,5121 L18848,5117 L18856,5106 L18883,5102 L19083,5038 L19106,5035 L19122,5018 L19153,5020 L19197,4991 L19205,4991 L19216,4983 L19246,4979 L19253,4963 L19283,4934 L19288,4917 L19307,4911 L19434,4784 L19517,4695 Z M19851,4366 L19822,4387 L19822,4396 L19832,4405 L19874,4511 L19931,4609 L19973,4656 L20000,4665 L19986,4615 L19966,4595 L19940,4541 L19871,4365 L19866,4360 Z M18011,4172 L18006,4203 L17956,4284 L17952,4299 L17954,4307 L17998,4352 L18008,4387 L18009,4438 L18147,4452 L18191,4451 L18194,4447 L18175,4395 L18085,4232 L18038,4180 Z M19766,4097 L19772,4125 L19783,4143 L19865,4342 L19883,4334 L19954,4261 L19976,4249 L19981,4235 L20013,4202 L20005,4193 L19966,4176 L19960,4167 L19938,4163 L19794,4101 Z M18291,4167 L18292,4212 L18360,4326 L18360,4333 L18405,4415 L18469,4468 L18486,4473 L18494,4449 L18511,4327 L18522,4326 L19278,4435 L19287,4440 L19456,4462 L19469,4467 L19657,4490 L19654,4460 L19631,4378 L19617,4361 L19531,4298 L19411,4265 L19195,4232 L19045,4220 L19010,4213 L19039,4015 L19045,4005 L19068,4006 L19108,4019 L19174,4026 L19189,4011 L19274,4016 L19281,4005 L19278,3983 L19241,3981 L19055,3950 L19039,3940 L18989,3938 L18503,3866 L18492,3875 L18492,3882 L18513,3902 L18664,3935 L18676,3951 L18666,3961 L18636,3960 L18473,3934 L18431,4118 L18427,4153 L18305,4152 L18297,4155 Z" fill="#acda43" fill-opacity="0.45" stroke="#acda43" stroke-width="6"/>
<path id="L1_left_bank" d="M20036,5310 L20031,5300 L19479,5041 L19430,5014 L19341,4988 L19255,4986 L19246,4980 L19216,4984 L19153,5021 L19122,5019 L19106,5036 L19083,5039 L18883,5103 L18856,5107 L18848,5118 L18816,5122 L18623,5182 L18596,5186 L18606,5054 L18430,5038 L18437,4910 L18196,4887 L18195,4811 L17927,4793 L17596,4734 L17585,4726 L17562,4723 L17311,4646 L17286,4644 L17275,4656 L17289,4672 L17283,4756 L17202,4762 L17107,4760 L17105,4790 L17083,4867 L17068,4903 L17066,4922 L17059,4928 L16995,4943 L16979,4930 L16970,4902 L16948,4868 L16925,4816 L16910,4762 L16819,4746 L16814,4689 L16809,4683 L16790,4690 L16737,4780 L16727,4786 L16667,4767 L16548,4768 L16544,4772 L16530,4878 L16526,4883 L16395,4917 L16406,4786 L16424,4664 L16174,4707 L16181,4628 L16166,4626 L15994,4540 L15951,4525 L15946,4527 L15928,4620 L15760,4597 L15762,4573 L15879,4373 L15932,4307 L15937,4295 L15934,4288 L15874,4260 L15855,4257 L15850,4248 L15617,4160 L15577,4150 L15562,4140 L15500,4119 L15471,4115 L15459,4107 L15127,4114 L15124,4123 L15103,4127 L15061,4152 L15050,4168 L15030,4168 L15022,4157 L15014,4155 L14984,4161 L14972,4168 L14924,4160 L14888,4160 L14863,4152 L14850,4139 L14839,4139 L14814,4116 L14730,4117 L14707,4140 L14572,4141 L14549,4119 L14471,4119 L14464,4126 L14441,4126 L14434,4119 L14190,4116 L14048,4109 L14039,4116 L14039,4124 L14020,4138 L14006,4349 L12320,4234 L12303,4238 L12263,4231 L12249,4245 L12244,4259 L12234,4406 L12165,4404 L12154,4397 L12036,4379 L12031,4453 L12027,4461 L11978,4469 L11912,4485 L11903,4492 L11879,4494 L11396,4623 L11384,4631 L11098,4712 L11048,4524 L11137,4504 L11202,4484 L11203,4464 L11185,4407 L11178,4405 L11153,4407 L11062,4437 L11028,4443 L11019,4451 L10737,4526 L10728,4518 L10715,4471 L10697,4460 L10565,4513 L10557,4526 L10514,4544 L10509,4540 L10500,4503 L10423,4532 L10398,4534 L10392,4525 L10313,4508 L10257,4504 L10238,4507 L10227,4496 L10210,4498 L10013,4573 L9979,4583 L9969,4575 L9922,4587 L9667,4690 L9646,4720 L9469,4791 L9446,4825 L9409,4844 L9378,4874 L9326,4942 L9316,4965 L9247,5003 L9155,5040 L9123,5034 L9116,5003 L9086,4935 L9079,4941 L9049,4949 L9044,4956 L9049,4961 L9055,5000 L9045,5008 L9009,5068 L8999,5076 L8964,5061 L8944,5062 L8906,5076 L8773,5153 L8747,5158 L8701,5212 L8668,5225 L8583,5295 L8573,5311 Z" fill="#cbad8c" fill-opacity="0.45" stroke="#cbad8c" stroke-width="6"/>
<path id="L1_pocket" d="M17687,3747 L17668,3971 L17693,3974 L17756,3996 L17759,4002 L17822,4022 L17877,4051 L17931,4086 L17988,4134 L17996,4157 L18010,4171 L18038,4179 L18082,4226 L18120,4289 L18176,4395 L18195,4447 L18226,4435 L18339,4345 L18359,4334 L18359,4326 L18291,4212 L18290,4167 L18296,4155 L18305,4151 L18426,4153 L18430,4118 L18470,3936 L18475,3933 L18636,3959 L18666,3960 L18675,3951 L18664,3936 L18513,3903 L18491,3882 L18491,3875 L18504,3865 L18649,3885 L18653,3842 L18639,3820 L18515,3798 L18465,3778 L18303,3745 L18247,3728 L18227,3727 L18211,3810 L18103,3794 L18082,3784 L18011,3781 L18000,3773 L17990,3775 L17983,3797 L17974,3806 L17924,3802 L17758,3767 L17710,3745 Z" fill="#57687d" fill-opacity="0.45" stroke="#57687d" stroke-width="6"/>
<path id="L1_right_bank" d="M3427,5311 L8297,5311 L8292,5299 L8158,5173 L8150,5171 L8143,5159 L8172,5130 L8499,4874 L8508,4858 L8538,4845 L8599,4797 L8621,4794 L8635,4779 L8693,4742 L8698,4731 L8718,4726 L8853,4638 L8843,4628 L8835,4592 L8812,4569 L8807,4554 L8811,4549 L8826,4544 L8875,4552 L8935,4547 L8962,4580 L8996,4573 L9006,4582 L9026,4582 L9041,4599 L9066,4599 L9185,4549 L9356,4489 L10262,4116 L10329,4093 L10341,4083 L10525,4014 L10593,4010 L10871,3909 L10876,3913 L10944,4171 L10951,4174 L11010,4155 L11090,4121 L11132,4113 L11255,4060 L11443,3994 L11564,3943 L11595,3939 L11625,3928 L11634,3928 L11642,3936 L11692,3943 L11716,3964 L11767,3968 L11843,3982 L11896,3978 L11900,3921 L11905,3919 L12546,3973 L12878,3989 L12907,3683 L12901,3677 L12902,3655 L12910,3645 L13075,3660 L13094,3677 L13217,3687 L13228,3676 L13947,3755 L13943,3794 L13955,3800 L14250,3805 L14450,3795 L14453,3747 L14443,3735 L14466,3735 L14470,3739 L15051,3733 L15108,3724 L15253,3688 L15281,3685 L15297,3678 L15412,3655 L15528,3639 L15618,3639 L15637,3653 L15760,3669 L16031,3644 L16077,3645 L16084,3593 L16095,3588 L16118,3588 L16124,3596 L16150,3599 L16640,3611 L16655,3451 L17019,3466 L17020,3263 L17027,3256 L17047,3257 L17056,3277 L17138,3373 L17154,3378 L17226,3376 L17266,3308 L17289,3290 L17296,3297 L17295,3480 L17404,3483 L17406,3434 L17427,3429 L17569,3332 L17576,3323 L17580,3299 L17676,3309 L17807,3300 L18068,3298 L18083,3292 L18257,3297 L18388,3294 L18401,3457 L18424,3453 L18448,3441 L18476,3439 L18479,3482 L18463,3581 L18550,3594 L18581,3463 L18587,3420 L18650,3413 L18723,3412 L18837,3421 L18844,3419 L18845,3410 L18872,3406 L18977,3374 L19157,3347 L19157,3373 L19116,3594 L19173,3606 L19175,3640 L19187,3690 L19201,3698 L19222,3745 L19230,3776 L19282,3832 L19298,3840 L19303,3835 L19307,3813 L19314,3644 L19310,3581 L19331,3577 L19527,3576 L19528,3604 L19464,3915 L19517,3928 L19525,3937 L19585,3961 L19587,3987 L19575,3995 L19569,4025 L19601,4033 L19611,4028 L19671,4052 L19696,4069 L19746,4081 L19765,4096 L19794,4100 L19938,4162 L19960,4166 L19966,4175 L20005,4192 L20014,4202 L20029,4189 L20044,4184 L20439,4419 L20446,4435 L20442,4452 L20403,4483 L20393,4497 L20535,4622 L20553,4629 L20558,4644 L20662,4766 L20678,4772 L20683,4792 L20723,4851 L20762,4894 L20791,4900 L20849,4929 L20867,4861 L20867,4796 L20844,4412 L20671,4421 L20659,4239 L20648,4201 L20636,4194 L20638,4159 L20655,4092 L20689,3801 L20672,3579 L20667,3565 L20671,3538 L20665,3516 L20649,3353 L20811,3324 L20812,3272 L20824,3227 L20843,3222 L20851,3211 L20912,3203 L20953,3209 L20966,3220 L21004,3237 L20997,3252 L21015,3449 L21070,3533 L21074,3556 L21070,3563 L21070,3635 L21075,3723 L21155,3725 L21163,3750 L21368,4155 L21372,4178 L21390,4187 L21528,4215 L21539,4247 L21531,4257 L21141,4449 L21120,4453 L21156,5060 L21150,5134 L21156,5146 L21268,5215 L21285,5254 L21300,5265 L21289,5279 L21278,5311 L29545,5311 L29559,5264 L29570,5197 L29571,5119 L29551,4875 L29546,4865 L29535,4747 L29529,4732 L29518,4636 L29519,4602 L29513,4597 L29489,4424 L29481,4326 L29420,3968 L29419,3948 L29428,3939 L29410,3925 L29411,3886 L29402,3840 L29384,3822 L29205,3091 L29203,3069 L29211,3060 L29193,3031 L29164,2921 L29160,2894 L29171,2862 L29161,2853 L29100,2860 L29060,2674 L29056,2632 L29041,2620 L29038,2568 L29050,2556 L29070,2553 L29089,2542 L29094,2531 L29119,2520 L29176,2475 L29183,2464 L29150,2312 L29148,2285 L29123,2205 L29113,2139 L29090,2141 L28997,2167 L28992,2162 L28984,2121 L29039,2119 L29092,2107 L29102,2098 L29090,2049 L29084,2041 L29073,1960 L29067,1954 L28989,1587 L28934,1477 L28930,1457 L28917,1454 L28913,1433 L28726,1068 L28720,1043 L28707,1030 L28691,998 L28687,979 L28678,973 L28589,797 L28584,775 L28571,762 L28377,375 L28331,306 L28307,281 L28315,267 L28315,251 L28303,235 L28227,79 L28224,59 L28213,50 L28192,0 L4759,0 L4733,33 L4717,76 L4552,397 L4528,478 L4525,504 L4530,511 L4509,556 L4510,577 L4334,892 L4313,902 L4288,941 L4221,1079 L4203,1142 L4192,1196 L4192,1227 L4187,1232 L4136,1510 L4092,1786 L4092,1817 L4109,1947 L4122,1954 L4131,2020 L4161,2045 L4162,2072 L4174,2083 L4176,2173 L4149,2199 L4144,2250 L4133,2255 L4108,2293 L4111,2299 L4107,2327 L4096,2347 L4094,2449 L4087,2454 L4084,2499 L4086,2519 L4101,2534 L4091,2544 L4090,2698 L4099,2708 L4088,2718 L4078,2743 L4069,2793 L4054,2827 L4016,2843 L3926,2969 L3906,3023 L3904,3067 L3892,3079 L3905,3123 L3916,3129 L3916,3153 L3899,3173 L3861,3255 L3853,3306 L3859,3322 L3815,3478 L3763,3767 L3748,3816 L3729,3827 L3720,3849 L3660,4053 L3619,4212 L3617,4236 L3625,4243 L3630,4263 L3662,4294 L3681,4305 L3684,4325 L3646,4505 L3644,4531 L3649,4537 L3640,4543 L3629,4568 L3607,4573 L3562,4600 L3557,4609 L3554,4644 L3541,4660 L3530,4765 L3500,4936 L3499,4958 L3507,4966 L3478,5102 L3444,5224 Z" fill="#5a92b9" fill-opacity="0.45" stroke="#5a92b9" stroke-width="6"/>
<path id="L1_seine" d="M17291,4182 L17223,4177 L17211,4163 L17196,4163 L17187,4172 L16937,4144 L16956,3680 L16802,3669 L16669,3672 L16658,3661 L16508,3656 L16380,3658 L16051,3645 L15760,3670 L15637,3654 L15618,3640 L15551,3638 L15460,3648 L15297,3679 L15282,3685 L15288,3692 L15287,3724 L15262,3725 L15056,3771 L14907,3786 L14453,3795 L14174,3806 L13980,3803 L13947,3800 L13942,3794 L13913,3797 L13898,3783 L13892,3754 L13887,3750 L13228,3677 L13217,3688 L13094,3678 L13075,3661 L12910,3646 L12903,3655 L12902,3677 L12908,3683 L12883,3956 L13030,3968 L13043,3983 L13031,3995 L12879,3989 L12876,4037 L12871,4042 L12867,4038 L12053,3981 L12051,4035 L12046,4044 L12024,4037 L12001,4021 L11949,4003 L11934,3985 L11895,3980 L11843,3983 L11711,3963 L11703,3973 L11667,3979 L11256,4136 L11251,4144 L11204,4157 L11110,4198 L11070,4209 L11065,4206 L10989,4237 L10968,4240 L10963,4252 L10944,4254 L10900,4271 L10855,4282 L10849,4276 L10791,4276 L10781,4266 L10794,4243 L10929,4186 L10947,4184 L10872,3910 L10593,4011 L10525,4015 L10341,4084 L10329,4094 L10262,4117 L9356,4490 L9185,4550 L9072,4598 L9044,4601 L9034,4596 L9026,4583 L9006,4583 L8996,4574 L8962,4581 L8945,4605 L8920,4612 L8904,4622 L8900,4631 L8852,4639 L8718,4727 L8698,4732 L8693,4743 L8635,4780 L8621,4795 L8599,4798 L8538,4846 L8508,4859 L8499,4875 L8172,5131 L8144,5159 L8144,5164 L8158,5172 L8292,5298 L8298,5311 L8572,5311 L8583,5294 L8668,5224 L8701,5211 L8747,5157 L8759,5127 L8901,5036 L8914,5013 L8930,5003 L8969,4993 L9020,4964 L9040,4960 L9049,4948 L9081,4939 L9088,4927 L9312,4845 L9333,4831 L9417,4797 L9460,4789 L9466,4793 L9642,4721 L9652,4714 L9667,4689 L9922,4586 L9969,4574 L9979,4582 L10195,4500 L10226,4495 L10240,4470 L10304,4443 L10337,4440 L10398,4413 L10455,4395 L10465,4385 L10516,4364 L10547,4358 L10554,4364 L10516,4431 L10510,4459 L10501,4466 L10503,4489 L10526,4486 L10557,4471 L10596,4445 L10664,4388 L10686,4383 L10697,4459 L10716,4471 L10734,4525 L11019,4450 L11028,4442 L11062,4436 L11153,4406 L11185,4406 L11204,4464 L11202,4485 L11137,4505 L11049,4524 L11098,4711 L11384,4630 L11396,4622 L11879,4493 L11903,4491 L11912,4484 L11978,4468 L12027,4460 L12043,4214 L12197,4222 L12214,4214 L12222,4196 L12240,4201 L12258,4214 L12264,4230 L12303,4237 L12320,4233 L13827,4336 L13842,4120 L13854,4117 L13861,4096 L13880,4079 L13894,4086 L13912,4123 L14028,4134 L14038,4124 L14038,4116 L14051,4108 L14190,4115 L14434,4118 L14441,4125 L14464,4125 L14471,4118 L14549,4118 L14572,4140 L14707,4139 L14730,4116 L14792,4115 L14817,4116 L14839,4138 L14850,4138 L14881,4108 L15027,4094 L15135,4076 L15297,4068 L15299,4108 L15463,4107 L15471,4114 L15500,4118 L15562,4139 L15577,4149 L15617,4159 L15850,4247 L15855,4256 L15874,4259 L15934,4287 L15939,4296 L15974,4301 L16034,3984 L16061,3984 L16388,3932 L16389,3955 L16376,4022 L16349,4261 L16458,4338 L16503,4355 L16508,4350 L16530,4352 L16573,4373 L16631,4389 L16638,4396 L16640,4418 L16645,4422 L16798,4458 L16852,4463 L17290,4533 Z M18476,3440 L18448,3442 L18424,3454 L18402,3458 L18398,3467 L18247,3539 L18231,3553 L18229,3593 L18243,3623 L18245,3640 L18230,3725 L18466,3778 L18467,3703 L18454,3604 L18458,3583 L18462,3581 L18477,3490 Z M18066,3299 L17807,3301 L17676,3310 L17640,3307 L17637,3495 L16655,3452 L16641,3611 L16703,3614 L16708,3620 L16730,3616 L16905,3620 L17001,3632 L17298,3644 L17406,3658 L17409,3662 L17608,3695 L17701,3704 L17713,3714 L17758,3720 L17954,3764 L17983,3765 L17997,3773 L18012,3753 L18062,3736 L18061,3343 Z M21538,4247 L21528,4216 L21390,4188 L21370,4178 L21337,4175 L21125,4122 L21099,4120 L21069,3635 L21069,3563 L21073,3559 L21069,3533 L21014,3449 L20996,3252 L21003,3237 L20966,3221 L20953,3210 L20912,3204 L20851,3212 L20843,3223 L20825,3227 L20813,3272 L20817,3393 L20792,3448 L20795,3509 L20772,3506 L20744,3489 L20730,3494 L20690,3533 L20671,3539 L20668,3563 L20673,3579 L20690,3781 L20669,3991 L20794,3983 L20820,3985 L20868,4796 L20868,4861 L20854,4925 L20839,4936 L20836,4946 L20814,4968 L20808,4982 L20810,5011 L20823,5056 L20821,5063 L20762,5045 L20744,5004 L20774,4987 L20785,4965 L20785,4953 L20766,4916 L20761,4893 L20722,4851 L20682,4792 L20677,4772 L20661,4766 L20557,4644 L20551,4628 L20535,4623 L20392,4497 L20379,4497 L20372,4488 L20330,4464 L20308,4462 L20299,4484 L20261,4540 L20245,4537 L20225,4524 L20204,4520 L20198,4510 L20164,4492 L20161,4486 L20163,4470 L20200,4406 L20201,4390 L20157,4364 L20139,4360 L20133,4349 L19976,4250 L19954,4262 L19883,4335 L19865,4343 L19771,4125 L19763,4094 L19724,4074 L19691,4068 L19671,4053 L19611,4029 L19606,4034 L19592,4033 L19567,4024 L19449,4010 L19449,3985 L19463,3911 L19443,3907 L19326,3853 L19301,3848 L19293,3836 L19282,3833 L19227,3773 L19221,3745 L19200,3698 L19186,3690 L19174,3640 L19172,3606 L19088,3590 L18938,3518 L18853,3444 L18844,3421 L18778,3419 L18775,3441 L18746,3530 L18723,3574 L18702,3634 L18682,3634 L18548,3606 L18508,3793 L18634,3817 L18646,3826 L18658,3822 L18907,3858 L18919,3874 L18947,3877 L18957,3867 L19186,3894 L19231,3887 L19291,3869 L19292,3897 L19281,3962 L19282,4005 L19278,4015 L19248,4018 L19189,4012 L19174,4027 L19108,4020 L19068,4007 L19045,4006 L19041,4010 L19011,4213 L19195,4231 L19411,4264 L19531,4297 L19617,4360 L19632,4378 L19655,4460 L19657,4491 L19469,4468 L19456,4463 L19287,4441 L19278,4436 L18512,4327 L18495,4449 L18487,4474 L18469,4469 L18404,4415 L18360,4334 L18339,4346 L18226,4436 L18191,4452 L18147,4453 L17890,4426 L17622,4406 L17612,4422 L17584,4424 L17376,4403 L17368,4406 L17359,4434 L17350,4512 L17354,4520 L17370,4529 L17597,4549 L17602,4611 L17591,4732 L17935,4793 L18195,4810 L18851,4867 L18888,4872 L18892,4876 L18945,4605 L19510,4671 L19523,4677 L19518,4695 L19307,4912 L19289,4917 L19284,4934 L19254,4963 L19247,4980 L19255,4985 L19353,4989 L19430,5013 L19479,5040 L20031,5299 L20037,5311 L21277,5311 L21288,5279 L21299,5265 L21284,5254 L21267,5215 L21155,5146 L21149,5134 L21155,5060 L21119,4453 L21141,4448 L21531,4256 Z M19851,4365 L19866,4359 L19872,4365 L19941,4541 L19967,4595 L19987,4615 L20002,4658 L20000,4666 L19973,4657 L19930,4609 L19873,4511 L19831,4405 L19821,4396 L19821,4387 Z" fill="#ceb5c5" fill-opacity="0.45" stroke="#ceb5c5" stroke-width="6"/>
</svg>