<svg xmlns="http://www.w3.org/2000/svg" viewBox="0 0 34048 5312" width="34048" height="5312">
<!-- Diem decomposition L2_arrondissements; coordinates are master-raster pixels (34048x5312). Derived from raster; raster is canonical. -->
<path id="L2_arr01" d="M12278,1912 L12278,1931 L12294,1946 L12339,2016 L12346,2048 L12340,2064 L12323,2330 L12280,2733 L12281,2796 L12252,2802 L12244,2819 L12187,2834 L12205,2890 L12208,2913 L12215,2917 L12221,2934 L12223,2966 L12176,3437 L12171,3442 L12170,3504 L12181,3545 L12159,3547 L11960,3526 L11950,3519 L11940,3521 L11929,3531 L11947,3558 L12041,3566 L12058,3582 L12046,3594 L11936,3586 L11906,3920 L12546,3973 L12878,3989 L12881,3956 L13030,3968 L13043,3983 L13246,3997 L13257,4010 L13421,4024 L13603,4073 L13614,4092 L13649,4102 L13853,4118 L13861,4096 L13882,4079 L13891,3952 L13913,3796 L13942,3793 L13947,3799 L14011,3803 L14250,3805 L14452,3795 L14455,4114 L14464,4124 L14471,4118 L14549,4118 L14572,4140 L14707,4139 L14730,4116 L14814,4115 L14839,4138 L14850,4138 L14881,4108 L15027,4094 L15135,4076 L15297,4068 L15299,4108 L15463,4107 L15471,4114 L15500,4118 L15562,4139 L15577,4149 L15617,4159 L15850,4247 L15855,4256 L15874,4259 L15934,4287 L15939,4296 L15973,4301 L15976,4315 L15997,4319 L16224,4436 L16230,4445 L16261,4454 L16450,4551 L16482,4556 L16581,4589 L16611,4594 L16804,4650 L16809,4655 L16815,4652 L16817,4630 L16853,4492 L16855,4468 L16862,4465 L16869,4423 L16933,4175 L16942,4087 L16955,3683 L16962,3677 L16972,3631 L16991,3628 L16994,3613 L17017,3579 L17020,3263 L17027,3256 L17019,3242 L17020,2824 L17029,2814 L17020,2804 L17019,2690 L17025,2677 L17015,2676 L17020,2671 L17021,1875 L16703,1877 L16686,1873 L16681,1879 L16646,1881 L16642,1877 L16043,1879 L16020,1872 L15962,1883 L15929,1875 L15918,1881 L15279,1881 L15274,1904 L15262,1923 L15246,1934 L15222,1940 L15178,1932 L15159,1882 L14999,1884 L14983,1878 L14979,1884 L14860,1886 L14844,1872 L14827,1885 L13850,1894 L13844,1900 L13826,1892 L13769,1897 L13290,1908 L13144,1870 L13036,1815 L13017,1800 L12966,1781 L12756,1677 L12737,1674 L12731,1664 L12670,1655 L12491,1780 L12469,1786 L12468,1793 L12457,1804 L12397,1845 L12378,1850 L12371,1863 L12346,1881 L12311,1887 Z" fill="#9fb2cc" fill-opacity="0.45" stroke="#9fb2cc" stroke-width="6"/>
<path id="L2_arr02" d="M17023,218 L16736,223 L16724,236 L16712,225 L16657,224 L15856,258 L15522,298 L15475,299 L14796,375 L14789,379 L14473,410 L14465,420 L14460,415 L14412,419 L14404,462 L14353,480 L14346,498 L14331,509 L14325,520 L14305,526 L14220,585 L14214,598 L14177,608 L14174,617 L14136,644 L14130,655 L14114,659 L14058,699 L14038,704 L14036,713 L14021,730 L13993,736 L13985,750 L13872,824 L13860,839 L13853,840 L13709,941 L13699,943 L13685,960 L13659,974 L13650,988 L13624,998 L13028,1411 L13001,1437 L12989,1437 L12870,1522 L12851,1527 L12837,1545 L12734,1611 L12734,1670 L12756,1676 L12966,1780 L13017,1799 L13036,1814 L13144,1869 L13290,1907 L13769,1896 L13826,1891 L13844,1899 L13850,1893 L14827,1884 L14844,1871 L14860,1885 L14979,1883 L14983,1877 L14999,1883 L15159,1881 L15178,1931 L15222,1939 L15246,1933 L15261,1923 L15273,1904 L15279,1880 L15918,1880 L15929,1874 L15962,1882 L16020,1871 L16043,1878 L16642,1876 L16646,1880 L16681,1878 L16686,1872 L16703,1876 L17021,1874 L17022,1664 L17018,1601 L17024,1577 L17020,1367 L17024,1349 L17020,615 Z" fill="#8544d7" fill-opacity="0.45" stroke="#8544d7" stroke-width="6"/>
<path id="L2_arr03" d="M17023,216 L17025,1349 L17021,1367 L17025,1577 L17019,1601 L17023,1664 L17022,2270 L17438,2262 L17454,2248 L17468,2260 L17626,2259 L17628,2264 L18282,2339 L18321,2355 L18601,2503 L18610,2515 L18648,2529 L18701,2559 L18712,2573 L18719,2574 L18722,2584 L18733,2581 L18760,2586 L18827,2614 L18849,2617 L18852,2627 L18885,2632 L19107,2696 L19337,2743 L19340,2747 L19546,2768 L19863,2791 L20566,2715 L20565,2690 L20551,2679 L20427,2454 L20423,2433 L20413,2426 L20338,2292 L20335,2280 L20320,2264 L20318,2254 L20218,2078 L20216,2066 L20203,2056 L20199,2041 L20128,1914 L20114,1903 L20093,1843 L20085,1840 L20016,1716 L20014,1704 L20000,1696 L19994,1676 L19942,1585 L19938,1564 L19928,1558 L19902,1508 L19891,1503 L19887,1481 L19849,1414 L19837,1405 L19814,1343 L19803,1334 L19719,1181 L19702,1160 L19702,1144 L19689,1131 L19632,1027 L19620,1020 L19600,976 L19589,972 L19512,887 L19506,870 L19483,854 L19352,706 L19338,700 L19327,669 L19313,664 L19220,558 L19204,551 L19200,536 L19027,344 L19007,316 L18953,301 L18947,293 L18927,286 L18914,263 L18903,258 L18890,238 L18839,222 L18819,220 L18813,226 L18743,198 L18690,183 L18684,177 L18694,155 L18787,39 L18791,23 L18801,11 L18798,0 L18487,0 L18465,65 L18460,69 L18211,100 L18187,87 L18179,94 L18114,101 L18100,117 L17503,197 L17373,210 Z" fill="#acda43" fill-opacity="0.45" stroke="#acda43" stroke-width="6"/>
<path id="L2_arr04" d="M17021,2272 L17021,2671 L17016,2676 L17026,2677 L17020,2690 L17021,2804 L17030,2814 L17021,2824 L17020,3242 L17028,3256 L17021,3263 L17018,3579 L16995,3613 L16992,3628 L16973,3631 L16963,3677 L16956,3683 L16943,4087 L16934,4175 L16870,4423 L16863,4465 L16856,4468 L16854,4492 L16818,4630 L16816,4653 L16867,4652 L16881,4641 L17273,4656 L17286,4643 L17311,4645 L17562,4722 L17585,4725 L17591,4732 L17927,4792 L18195,4810 L18888,4872 L18895,4880 L18949,4890 L18957,4882 L19283,4911 L19290,4916 L19307,4911 L19517,4695 L19522,4678 L19535,4675 L19681,4533 L19687,4518 L19703,4510 L19747,4471 L19822,4396 L19832,4405 L19883,4529 L19928,4605 L19973,4656 L19999,4664 L20008,4686 L20038,4712 L20728,5043 L20744,5047 L20767,5045 L20821,5062 L20807,4998 L20808,4977 L20835,4946 L20838,4936 L20848,4929 L21075,5063 L21102,5067 L21130,5090 L21150,5094 L21155,5089 L21134,4674 L21090,4674 L21081,4670 L21068,4548 L21012,4497 L21008,4484 L20971,3962 L20963,3924 L21005,3738 L21015,3732 L21075,3724 L21069,3635 L21069,3563 L21073,3556 L21069,3533 L21014,3449 L20996,3252 L21003,3237 L20966,3221 L20953,3210 L20918,3204 L20850,3211 L20848,3198 L20837,3179 L20817,3169 L20807,3117 L20790,3098 L20703,2941 L20691,2931 L20687,2912 L20577,2719 L20566,2716 L19863,2792 L19546,2769 L19340,2748 L19337,2744 L19107,2697 L18885,2633 L18852,2628 L18849,2618 L18827,2615 L18760,2587 L18733,2582 L18722,2585 L18718,2574 L18712,2574 L18701,2560 L18648,2530 L18610,2516 L18601,2504 L18321,2356 L18282,2340 L17628,2265 L17626,2260 L17468,2261 L17454,2249 L17438,2263 Z" fill="#cbad8c" fill-opacity="0.45" stroke="#cbad8c" stroke-width="6"/>
<path id="L2_arr05" d="M21150,5311 L21145,5300 L21007,5218 L20838,5081 L20822,5063 L20792,5057 L20767,5046 L20744,5048 L20728,5044 L20038,4713 L20007,4686 L19999,4665 L19973,4657 L19927,4605 L19882,4529 L19831,4405 L19822,4397 L19747,4472 L19703,4511 L19687,4519 L19682,4533 L19535,4676 L19523,4678 L19518,4695 L19307,4912 L19290,4917 L19283,4912 L18957,4883 L18949,4891 L18895,4881 L18888,4873 L18195,4811 L17927,4793 L17591,4733 L17585,4726 L17562,4723 L17311,4646 L17286,4644 L17273,4657 L16881,4642 L16867,4653 L16809,4656 L16819,4744 L16844,5305 L16850,5311 Z" fill="#57687d" fill-opacity="0.45" stroke="#57687d" stroke-width="6"/>
<path id="L2_arr06" d="M14454,4142 L14456,4190 L14530,4190 L14536,4197 L14613,4208 L14606,4216 L14530,4774 L14526,4779 L14506,4957 L14492,5121 L14498,5299 L14493,5311 L16849,5311 L16843,5305 L16814,4689 L16808,4682 L16808,4655 L16804,4651 L16611,4595 L16581,4590 L16482,4557 L16450,4552 L16261,4455 L16230,4446 L16224,4437 L15997,4320 L15976,4316 L15973,4302 L15939,4297 L15934,4288 L15874,4260 L15855,4257 L15850,4248 L15617,4160 L15577,4150 L15562,4140 L15500,4119 L15471,4115 L15459,4107 L15299,4109 L15297,4069 L15135,4077 L15027,4095 L14881,4109 L14850,4139 L14839,4139 L14817,4117 L14792,4116 L14730,4117 L14707,4140 L14572,4141 L14549,4119 L14471,4119 Z" fill="#5a92b9" fill-opacity="0.45" stroke="#5a92b9" stroke-width="6"/>
<path id="L2_arr07" d="M14612,4208 L14536,4198 L14530,4191 L14497,4193 L14453,4188 L14453,4142 L14464,4131 L14464,4125 L14454,4114 L14452,3796 L14250,3806 L14011,3804 L13947,3800 L13942,3794 L13913,3797 L13892,3952 L13883,4079 L13862,4096 L13853,4119 L13649,4103 L13614,4093 L13603,4074 L13421,4025 L13257,4011 L13246,3998 L13043,3984 L13030,3969 L12881,3957 L12878,3990 L12546,3974 L11734,3905 L11654,3909 L11642,3913 L11633,3929 L11564,3944 L11443,3995 L11255,4061 L11132,4114 L11096,4120 L10968,4172 L10948,4175 L10947,4185 L10929,4187 L10794,4244 L10780,4268 L10760,4272 L10670,4309 L10657,4322 L10554,4364 L10547,4359 L10516,4365 L10465,4386 L10455,4396 L10398,4414 L10337,4441 L10304,4444 L10241,4470 L10226,4496 L10195,4501 L9979,4583 L9969,4575 L9922,4587 L9667,4690 L9653,4714 L9642,4722 L9466,4794 L9460,4790 L9417,4798 L9333,4832 L9312,4846 L9088,4928 L9081,4940 L9049,4949 L9040,4961 L9020,4965 L8969,4994 L8930,5004 L8916,5013 L8910,5009 L8879,5015 L8615,5179 L8504,5274 L8480,5300 L8476,5311 L14492,5311 L14497,5299 L14491,5121 L14505,4957 L14525,4779 L14529,4774 L14605,4216 Z" fill="#ceb5c5" fill-opacity="0.45" stroke="#ceb5c5" stroke-width="6"/>
<path id="L2_arr08" d="M11893,0 L8968,0 L8958,14 L8773,123 L8749,130 L8744,141 L8679,178 L8660,197 L8645,201 L8614,223 L8602,225 L8583,247 L8431,366 L8411,372 L8404,387 L8082,641 L8077,641 L7817,850 L7807,850 L7793,867 L7722,923 L7703,929 L7696,944 L7628,997 L7612,1002 L7603,1017 L7518,1084 L7494,1094 L7494,1110 L7468,1122 L7457,1141 L7435,1148 L7248,1297 L7201,1328 L7192,1357 L7180,1377 L7167,1385 L7166,1419 L7153,1479 L7159,1485 L7147,1492 L7084,1492 L7093,1502 L7091,1547 L7003,2467 L6898,2486 L6836,2547 L6831,2562 L6818,2568 L6813,2592 L6791,2638 L6795,2677 L6810,2719 L6813,2741 L6821,2745 L6835,2769 L6863,2797 L6866,2807 L6882,2810 L6927,2835 L6964,2843 L7020,2841 L7052,2828 L7073,2825 L7080,2814 L7106,2795 L7132,2782 L7309,2929 L7329,2937 L7335,2951 L7589,3162 L7595,3177 L7637,3196 L7642,3201 L7642,3211 L7663,3229 L7858,3452 L7875,3458 L7875,3482 L7898,3488 L7903,3503 L8072,3697 L8087,3705 L8107,3757 L8118,3762 L8231,3953 L8253,3981 L8366,4167 L8371,4187 L8384,4196 L8412,4242 L8416,4259 L8430,4271 L8476,4346 L8480,4363 L8490,4369 L8540,4450 L8541,4493 L8551,4502 L8560,4531 L8567,4537 L8612,4512 L8618,4503 L8773,4529 L8781,4545 L8809,4555 L8815,4572 L8836,4592 L8844,4628 L8853,4637 L8901,4630 L8919,4649 L9044,4953 L9081,4939 L9088,4927 L9312,4845 L9333,4831 L9417,4797 L9460,4789 L9466,4793 L9642,4721 L9652,4714 L9667,4689 L9922,4586 L9969,4574 L9979,4582 L10016,4571 L10195,4500 L10226,4495 L10241,4469 L10296,4446 L10337,4440 L10398,4413 L10455,4395 L10465,4385 L10516,4364 L10547,4358 L10554,4363 L10657,4321 L10670,4308 L10760,4271 L10780,4267 L10792,4245 L10929,4186 L10947,4184 L10948,4174 L10968,4171 L11096,4119 L11132,4113 L11255,4060 L11443,3994 L11564,3943 L11633,3928 L11644,3911 L11669,3906 L11734,3904 L11905,3919 L11935,3586 L12046,3593 L12057,3582 L12041,3567 L11947,3559 L11928,3531 L11940,3520 L11950,3518 L11960,3525 L12180,3545 L12169,3504 L12170,3442 L12175,3437 L12222,2966 L12220,2934 L12214,2917 L12207,2913 L12204,2890 L12186,2834 L12244,2818 L12252,2801 L12280,2796 L12279,2733 L12322,2330 L12339,2064 L12345,2048 L12338,2016 L12293,1946 L12278,1933 L12277,1912 L12311,1886 L12346,1880 L12371,1862 L12377,1850 L12333,1629 L12331,1596 L12324,1593 L12321,1555 L12228,1055 L12224,1046 L12191,1031 L12200,923 L12204,916 L12203,836 L12190,828 L12181,794 L12182,771 L12189,760 L12181,755 L12147,751 L12153,685 L12144,667 L12144,656 L12130,646 L12129,636 L12062,519 L12046,503 L12041,483 L11984,380 L11935,365 L11929,355 L11934,344 L11948,338 L11957,325 L11968,273 L11967,236 Z" fill="#a665bd" fill-opacity="0.45" stroke="#a665bd" stroke-width="6"/>
<path id="L2_arr09" d="M11894,0 L11968,236 L11969,273 L11958,325 L11948,339 L11935,344 L11930,355 L11935,364 L11985,380 L12042,483 L12047,503 L12063,519 L12130,636 L12131,646 L12145,656 L12145,667 L12154,685 L12148,751 L12181,754 L12190,760 L12183,771 L12182,794 L12191,828 L12204,836 L12205,916 L12201,923 L12192,1031 L12224,1045 L12229,1055 L12322,1555 L12325,1593 L12332,1596 L12334,1629 L12377,1849 L12397,1844 L12462,1799 L12469,1785 L12491,1779 L12670,1654 L12734,1664 L12734,1610 L12837,1544 L12851,1526 L12870,1521 L12989,1436 L13001,1436 L13028,1410 L13624,997 L13650,987 L13659,973 L13685,959 L13699,942 L13709,940 L13853,839 L13860,838 L13872,823 L13985,749 L13993,735 L14021,729 L14038,703 L14058,698 L14114,658 L14130,654 L14136,643 L14170,620 L14177,607 L14214,597 L14220,584 L14305,525 L14325,519 L14330,509 L14345,498 L14353,479 L14403,462 L14412,418 L14460,414 L14465,419 L14473,409 L14789,378 L14796,374 L15855,258 L15850,230 L15826,163 L15819,155 L15817,138 L15770,0 Z" fill="#a3cc41" fill-opacity="0.45" stroke="#a3cc41" stroke-width="6"/>
<path id="L2_arr10" d="M15771,0 L15818,138 L15820,155 L15829,168 L15851,230 L15855,257 L16657,223 L16712,224 L16724,235 L16736,222 L17416,206 L18100,116 L18114,100 L18179,93 L18187,86 L18211,99 L18460,68 L18486,2 Z" fill="#763cc0" fill-opacity="0.45" stroke="#763cc0" stroke-width="6"/>
<path id="L2_arr11" d="M18685,176 L18690,182 L18743,197 L18813,225 L18819,219 L18839,221 L18890,237 L18904,258 L18915,263 L18927,285 L18947,292 L18953,300 L19007,315 L19028,344 L19201,536 L19205,551 L19219,556 L19313,663 L19328,669 L19339,700 L19353,706 L19484,854 L19507,870 L19513,887 L19589,971 L19601,976 L19621,1020 L19633,1027 L19690,1131 L19703,1144 L19703,1160 L19720,1181 L19804,1334 L19815,1343 L19838,1405 L19850,1414 L19888,1481 L19892,1503 L19903,1508 L19929,1558 L19939,1564 L19943,1585 L19995,1676 L20001,1696 L20015,1704 L20017,1716 L20086,1840 L20094,1843 L20115,1903 L20129,1914 L20200,2041 L20204,2056 L20217,2066 L20219,2078 L20319,2254 L20321,2264 L20336,2280 L20339,2292 L20414,2426 L20424,2433 L20428,2454 L20552,2679 L20566,2690 L20567,2715 L20581,2723 L20688,2912 L20692,2931 L20704,2941 L20791,3098 L20808,3117 L20818,3169 L20838,3179 L20849,3198 L20851,3211 L20918,3203 L20953,3209 L20966,3220 L21003,3236 L21040,3226 L21090,3223 L21093,3218 L21136,3230 L21281,3292 L21304,3295 L21320,3306 L21395,3325 L21459,3333 L21768,3354 L22661,3355 L22670,3362 L22697,3362 L22702,3357 L22814,3345 L22819,3340 L22936,3325 L22945,3319 L22984,3312 L23104,3275 L23150,3266 L23164,3252 L23185,3250 L23255,3224 L23264,3231 L23286,3229 L23393,3202 L23419,3200 L23425,3204 L23438,3191 L23568,3161 L23659,3149 L23685,3154 L23693,3145 L23711,3139 L23738,3141 L24183,3079 L24982,2980 L24995,2968 L25005,2975 L25023,2977 L25027,2973 L25166,2957 L25177,2952 L25205,2952 L25537,2910 L25539,2878 L25551,2826 L25587,2784 L25593,2766 L25609,2762 L25639,2744 L25679,2733 L25728,2732 L25781,2743 L25845,2818 L25858,2884 L25979,2867 L25975,2812 L25978,2802 L26230,2752 L26239,2743 L26235,2688 L26228,2681 L26207,2573 L26218,2560 L26214,2534 L26104,2366 L26097,2343 L26086,2338 L26018,2225 L25995,2198 L25992,2181 L25972,2150 L25966,2130 L25953,2125 L25880,2015 L25863,2004 L25825,2010 L25484,1696 L25474,1677 L25459,1673 L25296,1521 L25285,1518 L25278,1499 L25266,1495 L25095,1334 L25079,1330 L25074,1316 L24969,1218 L24952,1213 L24941,1192 L24805,1068 L24794,1024 L24752,986 L24743,972 L24723,959 L24697,964 L24502,903 L24496,896 L24475,894 L24272,828 L24220,818 L23843,796 L23826,776 L23815,771 L23773,763 L23743,762 L23735,767 L23731,752 L23716,743 L23585,571 L23580,553 L23568,548 L23521,488 L23505,479 L23500,461 L23376,302 L23361,295 L23355,276 L23327,240 L23314,235 L23310,219 L23159,25 L23152,0 L18799,0 L18802,11 L18794,19 L18788,39 L18695,155 Z" fill="#aaa557" fill-opacity="0.45" stroke="#aaa557" stroke-width="6"/>
<path id="L2_arr12" d="M29113,2139 L29090,2141 L29022,2163 L28990,2168 L28903,2167 L28890,2178 L28859,2172 L28850,2181 L28759,2180 L28350,2278 L28322,2262 L28283,2258 L28251,2286 L28248,2298 L28240,2305 L28209,2308 L28044,2345 L28004,2391 L27953,2399 L27526,2497 L27495,2499 L27481,2486 L27473,2496 L27456,2482 L27420,2486 L26258,2743 L26248,2751 L26239,2744 L26230,2753 L25978,2803 L25979,2868 L25858,2885 L25844,2818 L25781,2744 L25728,2733 L25679,2734 L25639,2745 L25609,2763 L25594,2766 L25588,2784 L25552,2826 L25537,2911 L25205,2953 L25177,2953 L25166,2958 L25027,2974 L25023,2978 L25005,2976 L24995,2969 L24982,2981 L24183,3080 L23738,3142 L23711,3140 L23693,3146 L23685,3155 L23659,3150 L23568,3162 L23438,3192 L23425,3205 L23419,3201 L23393,3203 L23286,3230 L23264,3232 L23255,3225 L23185,3251 L23164,3253 L23150,3267 L23104,3276 L22984,3313 L22945,3320 L22936,3326 L22819,3341 L22814,3346 L22702,3358 L22697,3363 L22670,3363 L22661,3356 L21768,3355 L21417,3330 L21311,3304 L21304,3296 L21284,3294 L21224,3271 L21136,3231 L21093,3219 L21090,3224 L21040,3227 L21004,3237 L20997,3252 L21015,3449 L21070,3533 L21074,3556 L21070,3563 L21070,3635 L21076,3724 L21070,3728 L21015,3733 L21006,3738 L20964,3924 L20972,3962 L21009,4484 L21013,4497 L21069,4548 L21082,4670 L21135,4674 L21156,5089 L21150,5095 L21130,5091 L21102,5068 L21075,5064 L20848,4930 L20814,4968 L20808,4982 L20810,5011 L20819,5035 L20822,5062 L20838,5080 L21007,5217 L21145,5299 L21151,5311 L29545,5311 L29559,5264 L29571,5169 L29571,5119 L29551,4875 L29546,4865 L29535,4747 L29529,4732 L29518,4636 L29519,4602 L29513,4597 L29489,4424 L29481,4326 L29422,3984 L29419,3948 L29428,3939 L29410,3925 L29411,3886 L29402,3840 L29384,3822 L29205,3091 L29203,3069 L29211,3060 L29193,3031 L29164,2921 L29160,2894 L29171,2862 L29161,2853 L29100,2860 L29060,2674 L29056,2632 L29041,2620 L29038,2568 L29050,2556 L29070,2553 L29089,2542 L29094,2531 L29119,2520 L29176,2475 L29183,2465 L29150,2312 L29148,2285 L29123,2205 Z" fill="#5b3e80" fill-opacity="0.45" stroke="#5b3e80" stroke-width="6"/>
<path id="L2_arr16" d="M3427,5311 L8475,5311 L8479,5300 L8519,5260 L8615,5178 L8879,5014 L8910,5008 L8916,5012 L8930,5003 L8969,4993 L9020,4964 L9040,4960 L9043,4953 L8918,4649 L8901,4631 L8853,4638 L8843,4628 L8835,4592 L8814,4572 L8808,4555 L8781,4546 L8773,4530 L8618,4504 L8612,4513 L8567,4538 L8559,4531 L8551,4504 L8540,4493 L8539,4450 L8489,4369 L8479,4363 L8475,4346 L8429,4271 L8415,4259 L8411,4242 L8383,4196 L8370,4187 L8365,4167 L8252,3981 L8230,3953 L8117,3762 L8106,3757 L8086,3705 L8071,3697 L7902,3503 L7897,3488 L7874,3482 L7874,3458 L7858,3453 L7662,3229 L7641,3211 L7637,3197 L7595,3178 L7589,3163 L7335,2952 L7329,2938 L7309,2930 L7132,2783 L7106,2796 L7080,2815 L7073,2826 L7052,2829 L7029,2840 L6964,2844 L6927,2836 L6882,2811 L6866,2808 L6862,2797 L6834,2769 L6820,2745 L6812,2741 L6809,2719 L6794,2677 L6790,2638 L6352,2598 L6294,2590 L6287,2582 L6227,2584 L5512,2512 L5481,2513 L5476,2508 L5121,2473 L5036,2468 L5026,2478 L4849,2485 L4837,2474 L4825,2479 L4796,2510 L4792,2526 L4777,2535 L4758,2572 L4719,2584 L4681,2604 L4676,2612 L4611,2621 L4537,2618 L4424,2581 L4412,2566 L4375,2542 L4322,2468 L4306,2462 L4301,2424 L4265,2405 L4263,2387 L4193,2380 L4178,2365 L4172,2379 L4146,2381 L4120,2405 L4095,2414 L4094,2449 L4087,2454 L4084,2499 L4086,2519 L4101,2534 L4091,2544 L4090,2698 L4099,2708 L4088,2718 L4078,2743 L4069,2793 L4054,2827 L4016,2843 L3926,2969 L3906,3023 L3904,3067 L3892,3079 L3905,3123 L3916,3129 L3916,3153 L3899,3173 L3861,3255 L3853,3306 L3859,3322 L3815,3478 L3763,3767 L3748,3816 L3729,3827 L3720,3849 L3660,4053 L3619,4212 L3617,4236 L3625,4243 L3630,4263 L3662,4294 L3681,4305 L3684,4325 L3646,4505 L3644,4531 L3649,4537 L3640,4543 L3629,4568 L3607,4573 L3562,4600 L3557,4609 L3554,4644 L3541,4660 L3530,4765 L3500,4936 L3499,4958 L3507,4966 L3478,5102 L3444,5224 Z" fill="#62a5cf" fill-opacity="0.45" stroke="#62a5cf" stroke-width="6"/>
<path id="L2_arr17" d="M4094,2409 L4120,2404 L4146,2380 L4172,2378 L4178,2364 L4193,2379 L4260,2384 L4265,2388 L4265,2404 L4302,2424 L4307,2462 L4323,2468 L4379,2545 L4412,2565 L4426,2581 L4545,2618 L4611,2620 L4676,2611 L4681,2603 L4719,2583 L4758,2571 L4764,2552 L4776,2535 L4791,2526 L4795,2510 L4833,2474 L4838,2473 L4849,2484 L5026,2477 L5038,2467 L5476,2507 L5481,2512 L5512,2511 L6227,2583 L6287,2581 L6294,2589 L6352,2597 L6791,2637 L6812,2592 L6817,2568 L6830,2562 L6835,2547 L6898,2485 L7002,2467 L7090,1547 L7092,1502 L7083,1492 L7147,1491 L7158,1485 L7152,1479 L7165,1419 L7166,1385 L7179,1377 L7191,1357 L7200,1328 L7248,1296 L7435,1147 L7457,1140 L7468,1121 L7493,1110 L7494,1093 L7518,1083 L7603,1016 L7612,1001 L7628,996 L7696,943 L7703,928 L7722,922 L7793,866 L7807,849 L7817,849 L8077,640 L8082,640 L8404,386 L8411,371 L8431,365 L8583,246 L8602,224 L8614,222 L8645,200 L8660,196 L8667,185 L8744,140 L8749,129 L8769,124 L8958,13 L8967,0 L4759,0 L4733,33 L4717,76 L4552,397 L4528,478 L4525,504 L4530,511 L4509,556 L4510,577 L4334,892 L4313,902 L4288,941 L4243,1028 L4212,1107 L4197,1166 L4192,1227 L4187,1232 L4136,1510 L4091,1802 L4108,1943 L4122,1954 L4131,2020 L4161,2045 L4162,2072 L4174,2083 L4176,2173 L4149,2199 L4144,2250 L4133,2255 L4108,2293 L4111,2299 L4107,2327 L4096,2347 Z" fill="#4eadc3" fill-opacity="0.45" stroke="#4eadc3" stroke-width="6"/>
<path id="L2_arr20" d="M23153,0 L23160,25 L23311,219 L23315,235 L23328,240 L23356,276 L23362,295 L23377,302 L23501,461 L23506,479 L23519,485 L23568,547 L23581,553 L23586,571 L23717,743 L23732,752 L23735,766 L23743,761 L23773,762 L23815,770 L23826,775 L23843,795 L24220,817 L24272,827 L24475,893 L24496,895 L24502,902 L24697,963 L24723,958 L24743,971 L24753,986 L24795,1024 L24806,1068 L24941,1191 L24952,1212 L24969,1217 L25075,1316 L25079,1329 L25095,1333 L25266,1494 L25278,1498 L25285,1517 L25296,1520 L25459,1672 L25474,1676 L25484,1695 L25825,2009 L25863,2003 L25881,2015 L25946,2116 L25967,2130 L25973,2150 L25993,2181 L25996,2198 L26019,2225 L26087,2338 L26098,2343 L26105,2366 L26215,2534 L26219,2560 L26208,2573 L26229,2681 L26236,2688 L26240,2743 L26247,2750 L26258,2742 L27420,2485 L27456,2481 L27473,2495 L27481,2485 L27495,2498 L27526,2496 L27953,2398 L28004,2390 L28044,2344 L28209,2307 L28240,2304 L28247,2298 L28250,2286 L28283,2257 L28322,2261 L28350,2277 L28759,2179 L28850,2180 L28859,2171 L28890,2177 L28903,2166 L28990,2167 L28993,2163 L28984,2121 L29039,2119 L29092,2107 L29102,2098 L29090,2049 L29084,2041 L29073,1960 L29067,1954 L28985,1574 L28934,1477 L28930,1457 L28917,1454 L28913,1433 L28726,1068 L28720,1043 L28707,1030 L28691,998 L28687,979 L28678,973 L28589,797 L28584,775 L28571,762 L28377,375 L28331,306 L28307,281 L28315,267 L28315,251 L28303,235 L28227,79 L28224,59 L28213,50 L28192,0 Z" fill="#a0a8a9" fill-opacity="0.45" stroke="#a0a8a9" stroke-width="6"/>
</svg>