<svg xmlns="http://www.w3.org/2000/svg" viewBox="0 0 34048 5312" width="34048" height="5312">
<!-- Diem decomposition L5_superblocks; coordinates are master-raster pixels (34048x5312). Derived from raster; raster is canonical. -->
<path id="L5_sb001" d="M10920,908 L10892,908 L10883,904 L10856,876 L10828,857 L10820,839 L10780,833 L10774,821 L10722,790 L10716,779 L10690,779 L10682,765 L10490,650 L10483,639 L10468,636 L10434,616 L10420,599 L10394,599 L10389,588 L10101,414 L10095,401 L10066,401 L10060,390 L9952,325 L9921,316 L9892,281 L9866,276 L9743,201 L9735,187 L9713,181 L9611,121 L9595,106 L9549,80 L9531,76 L9520,62 L9435,12 L9428,0 L8968,0 L8958,14 L8773,123 L8749,130 L8744,141 L8679,178 L8660,197 L8645,201 L8614,223 L8602,225 L8583,247 L8431,366 L8411,372 L8404,387 L8082,641 L8077,641 L7817,850 L7807,850 L7793,867 L7722,923 L7703,929 L7696,944 L7628,997 L7612,1002 L7603,1017 L7518,1084 L7494,1094 L7494,1110 L7468,1122 L7457,1141 L7435,1148 L7215,1322 L7201,1328 L7159,1327 L7116,1315 L7083,1322 L7063,1333 L7044,1360 L7035,1414 L7023,1420 L7012,1485 L7018,1492 L6996,1501 L6665,1500 L6025,1513 L5892,1512 L5524,1525 L5344,1522 L5326,1527 L5259,1521 L5240,1526 L4990,1528 L4773,1536 L4772,1541 L4767,1537 L4658,1534 L4610,1558 L4583,1559 L4569,1569 L4543,1575 L4510,1562 L4470,1534 L4191,1540 L4182,1531 L4177,1551 L4165,1542 L4131,1542 L4091,1807 L4108,1943 L4122,1954 L4131,2020 L4161,2045 L4162,2072 L4174,2083 L4176,2173 L4149,2199 L4144,2250 L4133,2255 L4108,2293 L4111,2299 L4107,2327 L4096,2347 L4094,2449 L4087,2454 L4084,2499 L4086,2519 L4101,2534 L4091,2544 L4090,2698 L4099,2708 L4088,2718 L4078,2743 L4069,2793 L4054,2827 L4016,2843 L3926,2969 L3908,3016 L3904,3067 L3892,3079 L3905,3123 L3916,3129 L3916,3153 L3899,3173 L3861,3255 L3853,3306 L3859,3322 L3815,3478 L3767,3751 L3748,3816 L3729,3827 L3720,3849 L3660,4053 L3617,4232 L3618,4239 L3625,4243 L3630,4263 L3662,4294 L3677,4301 L3683,4316 L3677,4368 L3644,4524 L3649,4536 L3667,4536 L3672,4541 L3672,4558 L3697,4552 L3728,4527 L3790,4488 L3803,4492 L3824,4513 L3827,4522 L3880,4535 L3944,4537 L3932,4864 L3935,4875 L3956,4885 L3960,4894 L3942,5079 L3932,5117 L3932,5156 L3924,5166 L3915,5212 L3903,5311 L4982,5311 L5001,5272 L5073,5178 L5077,5162 L5092,5154 L5216,4994 L5236,4986 L5240,4963 L5258,4939 L5258,4916 L5274,4909 L5516,4595 L5521,4576 L5540,4563 L5732,4309 L5747,4308 L5771,4315 L5808,4308 L5831,4282 L5838,4280 L5842,4237 L5836,4218 L5823,4201 L5824,4187 L6059,3878 L6065,3858 L6078,3852 L6106,3814 L6118,3810 L6123,3791 L6203,3687 L6206,3677 L6223,3666 L6225,3657 L6251,3624 L6255,3607 L6268,3601 L6444,3368 L6458,3361 L6466,3340 L6593,3174 L6598,3156 L6615,3144 L6865,2807 L6862,2797 L6834,2769 L6820,2745 L6812,2741 L6791,2653 L6790,2638 L6812,2592 L6816,2570 L6836,2554 L6841,2559 L6912,2550 L6996,2551 L7148,2583 L7162,2568 L7311,2485 L7324,2482 L7335,2469 L7348,2466 L7455,2404 L7482,2396 L7487,2385 L7535,2358 L7564,2350 L7598,2313 L7622,2308 L7668,2281 L7701,2272 L7707,2259 L7880,2160 L7906,2154 L7940,2127 L7965,2094 L7972,2101 L7993,2097 L8065,2055 L8093,2047 L8099,2037 L8208,1976 L8221,1953 L8280,1935 L8442,1842 L8449,1828 L8476,1823 L8519,1796 L8563,1786 L8594,1762 L8643,1740 L8646,1735 L8665,1732 L8672,1713 L8705,1705 L9042,1556 L9076,1549 L9091,1535 L9157,1507 L9178,1507 L9183,1500 L9398,1401 L9601,1316 L9607,1307 L9634,1302 L9747,1253 L9750,1247 L9788,1236 L9957,1162 L9998,1151 L10013,1138 L10058,1120 L10065,1108 L10089,1105 L10185,1060 L10193,1042 L10219,1041 L10225,1034 L10253,1029 L10259,1034 L10333,1032 L10347,1025 L10851,952 L10855,947 L10916,934 L10922,928 Z" fill="#9fb2cc" fill-opacity="0.45" stroke="#9fb2cc" stroke-width="6"/>
<path id="L5_sb002" d="M18667,180 L18662,196 L18649,211 L18645,228 L18615,244 L18610,261 L18532,355 L18519,358 L18505,407 L18462,492 L18447,568 L18433,608 L18421,681 L18413,692 L18384,814 L18379,819 L18371,880 L18364,890 L18325,1041 L18257,1039 L17858,1056 L17731,1055 L17725,1060 L17698,1064 L17682,1059 L17669,1066 L17646,1069 L17640,1087 L17623,1102 L17624,1145 L17618,1161 L17618,1346 L17622,1408 L17624,1706 L17620,1747 L17624,1842 L17616,1851 L17628,1860 L17631,2201 L17627,2276 L17635,2712 L17623,2725 L17641,2731 L17644,2739 L17634,2751 L17635,2851 L17640,2872 L17636,2885 L17637,3057 L17641,3062 L17639,3305 L17676,3309 L17807,3300 L18068,3298 L18083,3292 L18257,3297 L18388,3294 L18401,3457 L18424,3453 L18448,3441 L18476,3439 L18479,3482 L18463,3581 L18550,3594 L18581,3463 L18587,3420 L18650,3413 L18723,3412 L18837,3421 L18844,3419 L18845,3410 L18872,3406 L18977,3374 L19157,3347 L19157,3373 L19116,3594 L19173,3606 L19175,3640 L19187,3690 L19201,3698 L19222,3745 L19230,3776 L19282,3832 L19298,3840 L19303,3835 L19307,3813 L19314,3644 L19310,3581 L19331,3577 L19527,3576 L19528,3604 L19464,3915 L19517,3928 L19525,3937 L19585,3961 L19587,3987 L19575,3995 L19571,4027 L19601,4033 L19611,4028 L19677,4055 L19696,4069 L19746,4081 L19765,4096 L19794,4100 L19938,4162 L19960,4166 L19966,4175 L20005,4192 L20017,4202 L20029,4189 L20044,4184 L20049,4169 L20162,4058 L20170,4041 L20189,4031 L20400,3819 L20408,3797 L20446,3785 L20453,3765 L20478,3740 L20481,3726 L20499,3720 L20564,3655 L20582,3649 L20586,3621 L20605,3615 L20648,3571 L20667,3565 L20671,3538 L20665,3516 L20649,3353 L20811,3324 L20812,3272 L20825,3226 L20848,3217 L20848,3198 L20837,3179 L20817,3169 L20807,3117 L20790,3098 L20703,2941 L20691,2931 L20687,2912 L20580,2723 L20566,2715 L20565,2690 L20551,2679 L20427,2454 L20423,2433 L20413,2426 L20338,2292 L20335,2280 L20320,2264 L20318,2254 L20218,2078 L20216,2066 L20203,2056 L20199,2041 L20128,1914 L20114,1903 L20093,1843 L20085,1840 L20016,1716 L20014,1704 L20000,1696 L19994,1676 L19942,1585 L19938,1564 L19928,1558 L19902,1508 L19891,1503 L19887,1481 L19849,1414 L19837,1405 L19814,1343 L19803,1334 L19719,1181 L19702,1160 L19702,1144 L19689,1131 L19632,1027 L19620,1020 L19600,976 L19589,972 L19512,887 L19506,870 L19483,854 L19352,706 L19338,700 L19327,669 L19313,664 L19220,558 L19204,551 L19200,536 L19014,329 L19008,316 L19022,240 L18996,244 L18963,257 L18920,257 L18913,263 L18903,258 L18890,238 L18839,222 L18819,220 L18813,226 L18743,198 L18690,183 L18684,177 Z" fill="#8544d7" fill-opacity="0.45" stroke="#8544d7" stroke-width="6"/>
<path id="L5_sb003" d="M12084,2045 L12022,2039 L12015,2030 L12015,2012 L11999,2002 L11990,1986 L11977,1980 L11972,1942 L11953,1936 L11924,1908 L11918,1888 L11898,1882 L11819,1797 L11803,1792 L11783,1750 L11769,1746 L11740,1719 L11734,1705 L11713,1705 L11705,1684 L11524,1507 L11507,1478 L11483,1469 L11440,1419 L11222,1203 L11216,1188 L11196,1188 L11191,1176 L11157,1142 L11151,1125 L11131,1123 L11121,1101 L10982,955 L10975,941 L10975,926 L10963,912 L10931,914 L10923,919 L10923,928 L10916,935 L10855,948 L10851,953 L10347,1026 L10333,1033 L10259,1035 L10253,1030 L10225,1035 L10219,1042 L10193,1043 L10186,1060 L10089,1106 L10065,1109 L10058,1121 L10013,1139 L9998,1152 L9957,1163 L9788,1237 L9750,1248 L9747,1254 L9634,1303 L9607,1308 L9601,1317 L9398,1402 L9183,1501 L9178,1508 L9157,1508 L9091,1536 L9076,1550 L9042,1557 L8705,1706 L8672,1714 L8665,1733 L8646,1736 L8643,1741 L8594,1763 L8563,1787 L8519,1797 L8476,1824 L8449,1829 L8442,1843 L8280,1936 L8221,1954 L8208,1977 L8099,2038 L8093,2048 L8067,2055 L7993,2098 L7972,2102 L7965,2095 L7941,2127 L7906,2155 L7880,2161 L7707,2260 L7701,2273 L7677,2278 L7627,2307 L7598,2314 L7564,2351 L7535,2359 L7487,2386 L7482,2397 L7455,2405 L7348,2467 L7335,2470 L7324,2483 L7311,2486 L7162,2569 L7148,2584 L6996,2552 L6912,2551 L6841,2560 L6836,2555 L6817,2570 L6813,2592 L6791,2638 L6792,2653 L6813,2741 L6821,2745 L6835,2769 L6863,2797 L6865,2806 L6882,2810 L6927,2835 L6964,2843 L7020,2841 L7052,2828 L7073,2825 L7080,2814 L7116,2788 L7130,2783 L7165,2678 L7189,2676 L7658,2721 L7664,2716 L7705,2728 L8127,2769 L8142,2767 L8437,2800 L8939,2846 L8955,2844 L9324,2887 L9861,2939 L9870,2947 L9874,2935 L9887,2944 L10290,2978 L10588,3011 L10598,3016 L10643,3016 L11566,3106 L11597,3115 L11624,3113 L11747,3130 L11902,3143 L11915,3009 L11931,2952 L11940,2948 L11961,2923 L12002,2910 L12005,2827 L12015,2819 L12007,2811 L12008,2766 L12028,2670 Z" fill="#acda43" fill-opacity="0.45" stroke="#acda43" stroke-width="6"/>
<path id="L5_sb004" d="M19067,119 L19051,195 L19037,212 L19034,233 L19085,236 L19091,232 L19137,247 L19266,301 L19277,311 L19300,311 L19319,324 L19430,367 L19437,376 L19469,376 L19480,388 L19577,424 L19586,431 L19605,431 L19613,439 L19852,537 L19856,545 L19889,545 L19895,556 L20099,639 L20111,639 L20225,688 L20253,694 L20260,703 L20356,742 L20378,744 L20413,765 L20445,775 L20460,788 L20532,807 L20561,824 L20595,827 L20602,823 L20667,872 L20720,881 L20726,892 L20745,895 L21103,1037 L21131,1042 L21136,1051 L21222,1087 L21243,1090 L21250,1103 L21273,1106 L21285,1116 L21319,1124 L21549,1217 L21560,1225 L21575,1225 L21622,1248 L21934,1371 L22085,1436 L22106,1441 L22128,1457 L22155,1461 L22246,1502 L22262,1503 L22268,1520 L22311,1533 L22343,1524 L22377,1551 L22416,1565 L22427,1576 L22451,1580 L22667,1667 L22671,1674 L22739,1691 L22746,1700 L22838,1739 L22854,1742 L22870,1753 L22952,1781 L22964,1791 L22984,1794 L23082,1834 L23105,1838 L23109,1845 L23176,1868 L23186,1879 L23219,1889 L23319,1934 L23362,1947 L23388,1963 L23421,1963 L23435,1975 L23496,1995 L23909,2167 L23916,2175 L23946,2181 L24050,2221 L24078,2226 L24082,2223 L24090,2238 L24130,2248 L24138,2257 L24220,2290 L24228,2298 L24255,2303 L24314,2331 L24337,2333 L24362,2348 L24386,2351 L24395,2361 L24521,2411 L24543,2414 L24548,2422 L24846,2544 L24892,2557 L24897,2564 L24943,2583 L24950,2595 L24978,2595 L24983,2604 L25016,2612 L25553,2823 L25560,2819 L25590,2778 L25590,2761 L25273,2420 L25272,2414 L25253,2401 L25036,2160 L25017,2149 L25012,2134 L24949,2065 L24933,2058 L24927,2041 L24830,1935 L24811,1924 L24806,1909 L24718,1811 L24699,1795 L24339,1401 L24296,1348 L24277,1337 L24236,1287 L23834,848 L23826,820 L23781,804 L23752,799 L23738,784 L23731,752 L23716,743 L23585,571 L23580,553 L23568,548 L23521,488 L23505,479 L23500,461 L23376,302 L23361,295 L23355,276 L23327,240 L23314,235 L23310,219 L23159,25 L23152,0 L19839,0 L19844,12 L19881,41 L19888,58 L19884,64 L19836,67 L19828,72 L19795,66 L19791,70 L19653,76 L19647,81 L19561,88 L19552,94 L19450,95 L19117,121 Z" fill="#cbad8c" fill-opacity="0.45" stroke="#cbad8c" stroke-width="6"/>
<path id="L5_sb005" d="M27097,3333 L27081,3321 L27079,3313 L27038,3309 L27027,3290 L26590,3081 L26568,3077 L26564,3070 L26404,2992 L26391,2971 L26349,2961 L26316,2961 L26298,2952 L26282,2916 L26271,2844 L26260,2822 L26255,2786 L26249,2780 L26241,2787 L26124,2813 L26115,2821 L26091,2824 L26000,2858 L25982,2860 L25979,2868 L25858,2885 L25844,2818 L25781,2744 L25728,2733 L25663,2737 L25630,2749 L25609,2763 L25594,2766 L25588,2784 L25552,2826 L25540,2878 L25539,2910 L25557,2951 L25557,2972 L25548,2973 L25463,3027 L25261,3140 L25241,3157 L25225,3157 L25205,3174 L24907,3345 L24901,3356 L24872,3365 L24389,3645 L24364,3651 L24359,3663 L24328,3679 L24316,3691 L24303,3691 L24291,3702 L24144,3786 L24127,3789 L24120,3800 L24059,3834 L24048,3847 L24024,3854 L23874,3941 L23852,3947 L23849,3961 L23822,3969 L23558,4122 L23545,4135 L23533,4135 L23263,4296 L23226,4309 L23221,4321 L23174,4347 L23174,4361 L23166,4376 L23106,4377 L23096,4391 L22922,4492 L22911,4513 L22915,4519 L22999,4548 L23024,4551 L23301,4628 L23305,4634 L23371,4646 L23377,4652 L23443,4668 L23448,4674 L23499,4684 L23504,4690 L23530,4693 L23719,4748 L23736,4760 L23745,4757 L23819,4777 L23828,4785 L23858,4789 L24010,4835 L24035,4837 L24042,4845 L24169,4884 L24177,4891 L24200,4893 L24424,4954 L24440,4963 L24477,4969 L24486,4976 L24545,4984 L24553,4981 L24561,4991 L24704,5030 L24734,5035 L24745,5031 L24782,5048 L24786,5056 L24812,5059 L24840,5072 L24845,5067 L24862,5068 L24936,5084 L25073,5096 L25291,5091 L25327,5095 L25338,5090 L25853,5076 L25867,5079 L25920,5073 L26369,5062 L26375,5051 L26380,5011 L26621,5001 L26627,5007 L26670,4998 L26759,4960 L26766,4948 L26792,4946 L27034,4845 L27092,4825 L27105,4816 L27111,4793 L27136,4759 L27139,4740 L27161,4735 L27177,4722 L27215,4720 L27225,4706 L27219,4603 L27215,4596 L27191,4350 L27111,3663 L27106,3649 L27092,3501 L27088,3496 L27075,3391 Z" fill="#57687d" fill-opacity="0.45" stroke="#57687d" stroke-width="6"/>
<path id="L5_sb006" d="M23153,0 L23160,25 L23311,219 L23315,235 L23328,240 L23356,276 L23362,295 L23377,302 L23501,461 L23506,479 L23519,485 L23568,547 L23581,553 L23586,571 L23717,743 L23732,752 L23739,784 L23752,798 L23781,803 L23825,820 L23827,810 L23842,795 L24220,817 L24280,829 L24475,893 L24496,895 L24502,902 L24694,962 L24694,992 L24717,1020 L24759,1058 L24788,1067 L24805,1066 L24941,1191 L24952,1212 L24969,1217 L25075,1316 L25079,1329 L25095,1333 L25266,1494 L25278,1498 L25285,1517 L25296,1520 L25459,1672 L25474,1676 L25484,1695 L25823,2005 L25820,2028 L25829,2037 L25835,2058 L25937,2214 L25953,2224 L25957,2241 L25965,2251 L25965,2272 L25954,2279 L25930,2346 L25926,2373 L25918,2379 L25825,2629 L25815,2643 L25781,2743 L25845,2818 L25858,2884 L25979,2867 L25982,2859 L26000,2857 L26091,2823 L26115,2820 L26124,2812 L26241,2786 L26248,2779 L26255,2785 L26265,2775 L26315,2767 L27456,2511 L27477,2491 L27469,2480 L27461,2421 L27445,2418 L27440,2411 L27435,2363 L27441,2356 L27425,2320 L27427,2270 L27392,2112 L27378,2105 L27371,2079 L27336,2004 L27323,1990 L27314,1954 L27223,1747 L27216,1740 L27216,1728 L27118,1522 L27105,1504 L27105,1492 L26961,1196 L26863,1037 L26851,1029 L26845,1008 L26803,939 L26787,925 L26780,902 L26603,613 L26585,597 L26580,579 L26477,442 L26470,422 L26444,415 L26444,393 L26431,387 L26251,208 L26244,182 L26226,174 L26184,143 L26165,136 L26157,121 L26134,111 L26056,59 L26028,50 L26023,39 L25981,15 L25972,0 Z" fill="#5a92b9" fill-opacity="0.45" stroke="#5a92b9" stroke-width="6"/>
<path id="L5_sb007" d="M6736,5311 L7528,5311 L7561,5177 L7564,5149 L7584,5085 L7583,5035 L7604,5020 L7650,4966 L7655,4954 L7681,4947 L7726,4925 L7731,4915 L7761,4907 L7868,4854 L7896,4848 L7902,4838 L7986,4803 L8003,4770 L8017,4761 L8153,4700 L8166,4713 L8188,4709 L8267,4672 L8292,4667 L8309,4653 L8415,4607 L8432,4594 L8446,4594 L8541,4547 L8559,4543 L8574,4530 L8612,4512 L8618,4503 L8773,4529 L8781,4545 L8807,4553 L8826,4544 L8875,4552 L8934,4548 L8921,4480 L8938,4464 L8946,4435 L9036,4294 L9048,4288 L9060,4256 L9158,4100 L9164,4078 L9174,4074 L9282,3896 L9287,3875 L9302,3861 L9408,3688 L9422,3657 L9435,3650 L9446,3624 L9543,3472 L9550,3450 L9560,3444 L9578,3414 L9591,3407 L9596,3386 L9753,3134 L9769,3102 L9783,3088 L9813,3034 L9870,2948 L9861,2940 L9324,2888 L8955,2845 L8939,2847 L8610,2817 L8142,2768 L8127,2770 L7690,2727 L7664,2717 L7658,2722 L7382,2698 L7374,2694 L7166,2678 L7130,2784 L7116,2789 L7080,2815 L7073,2826 L7052,2829 L7020,2842 L6965,2844 L6854,4038 L6847,4077 L6850,4102 L6845,4111 L6806,4526 L6806,4547 L6810,4551 L6800,4583 L6775,4869 L6771,4878 L6750,5166 L6751,5201 L6744,5219 Z" fill="#ceb5c5" fill-opacity="0.45" stroke="#ceb5c5" stroke-width="6"/>
<path id="L5_sb008" d="M19023,238 L19009,316 L19015,329 L19201,536 L19205,551 L19219,556 L19313,663 L19328,669 L19339,700 L19353,706 L19484,854 L19507,870 L19513,887 L19589,971 L19601,976 L19621,1020 L19638,1035 L19690,1131 L19703,1144 L19703,1160 L19720,1181 L19807,1339 L19815,1343 L19838,1405 L19850,1414 L19888,1481 L19892,1503 L19903,1508 L19929,1558 L19939,1564 L19943,1585 L19995,1676 L20001,1696 L20015,1704 L20017,1716 L20086,1840 L20094,1843 L20115,1903 L20129,1914 L20200,2041 L20204,2056 L20217,2066 L20219,2078 L20319,2254 L20321,2264 L20336,2280 L20339,2292 L20414,2426 L20424,2433 L20428,2454 L20552,2679 L20566,2690 L20567,2715 L20581,2723 L20688,2912 L20692,2931 L20704,2941 L20791,3098 L20808,3117 L20818,3169 L20838,3179 L20849,3198 L20851,3211 L20918,3203 L20953,3209 L20966,3220 L21003,3236 L21040,3226 L21090,3223 L21093,3218 L21136,3230 L21281,3292 L21304,3295 L21311,3303 L21424,3330 L21768,3354 L22218,3355 L22226,2811 L22220,2803 L22227,2793 L22229,2457 L22234,2452 L22226,2399 L22230,2395 L22233,2140 L22238,2124 L22231,2091 L22237,1876 L22241,1871 L22235,1842 L22241,1650 L22235,1642 L22242,1631 L22242,1596 L22251,1587 L22250,1564 L22257,1522 L22263,1516 L22262,1504 L22246,1503 L22155,1462 L22128,1458 L22106,1442 L22085,1437 L21934,1372 L21622,1249 L21575,1226 L21560,1226 L21549,1218 L21319,1125 L21285,1117 L21273,1107 L21250,1104 L21243,1091 L21222,1088 L21136,1052 L21131,1043 L21103,1038 L20745,896 L20726,893 L20720,882 L20667,873 L20602,824 L20595,828 L20561,825 L20532,808 L20460,789 L20445,776 L20413,766 L20378,745 L20356,743 L20260,704 L20253,695 L20225,689 L20111,640 L20099,640 L19895,557 L19889,546 L19856,546 L19852,538 L19613,440 L19605,432 L19586,432 L19577,425 L19480,389 L19469,377 L19437,377 L19430,368 L19319,325 L19300,312 L19277,312 L19272,305 L19091,233 L19085,237 L19032,232 Z" fill="#a665bd" fill-opacity="0.45" stroke="#a665bd" stroke-width="6"/>
<path id="L5_sb009" d="M15405,1142 L15383,1139 L15182,1147 L15172,1142 L15158,1148 L15081,1148 L14982,1157 L14756,1166 L14682,1179 L14637,1176 L14502,1187 L14358,1192 L14166,1211 L14021,1219 L14007,1230 L13990,1222 L13423,1266 L13407,1301 L13414,1318 L13538,1488 L13558,1501 L13560,1526 L13583,1548 L13587,1565 L13602,1574 L13630,1613 L13643,1618 L13646,1650 L13660,1655 L13678,1672 L13684,1688 L13787,1826 L13810,1839 L13826,1890 L13844,1900 L13844,1913 L13861,1926 L13874,1945 L13878,1962 L13890,1968 L13985,2102 L14009,2114 L14010,2160 L14002,2169 L13997,2189 L13986,2304 L13981,2316 L13984,2347 L13979,2360 L13931,2846 L13955,2850 L13962,2859 L13958,2919 L13920,2919 L13848,3730 L13839,3744 L13947,3755 L13943,3794 L13955,3800 L14250,3805 L14450,3795 L14453,3747 L14443,3735 L14466,3735 L14470,3739 L15051,3733 L15140,3717 L15297,3678 L15460,3647 L15551,3637 L15622,3640 L15617,3618 L15608,3347 L15609,3158 L15601,3099 L15595,3095 L15597,3021 L15589,2876 L15590,2680 L15584,2579 L15587,2509 L15581,2385 L15586,2345 L15580,2337 L15582,2278 L15575,2137 L15570,2132 L15574,2114 L15573,1881 L15567,1775 L15562,1767 L15571,1713 L15566,1708 L15563,1496 L15559,1491 L15572,1458 L15570,1436 L15554,1424 L15548,1386 L15551,1372 L15543,1352 L15530,1336 L15530,1319 L15464,1230 L15453,1225 L15447,1208 L15410,1161 Z" fill="#a3cc41" fill-opacity="0.45" stroke="#a3cc41" stroke-width="6"/>
<path id="L5_sb010" d="M13364,1180 L13028,1411 L13001,1437 L12989,1437 L12870,1522 L12851,1527 L12844,1540 L12732,1613 L12687,1609 L12668,1622 L12667,1658 L12491,1780 L12469,1786 L12468,1793 L12457,1804 L12397,1845 L12378,1850 L12371,1863 L12346,1881 L12311,1887 L12277,1913 L12262,1908 L12255,1899 L12237,1894 L12231,1912 L12228,1964 L12215,2002 L12175,2021 L12173,2046 L12167,2052 L12085,2047 L12029,2670 L12009,2766 L12008,2811 L12016,2819 L12006,2827 L12003,2910 L11961,2924 L11940,2949 L11932,2952 L11916,3009 L11902,3144 L11744,3131 L11730,3322 L11733,3364 L11743,3390 L11708,3409 L11729,3448 L11771,3448 L11815,3464 L11826,3482 L11870,3495 L11890,3525 L11927,3530 L11943,3552 L11938,3559 L11938,3586 L12046,3593 L12058,3582 L12153,3592 L12170,3581 L12676,3632 L12690,3619 L13075,3660 L13089,3676 L13217,3687 L13228,3676 L13808,3741 L13838,3742 L13846,3734 L13919,2919 L13957,2919 L13961,2859 L13955,2851 L13930,2846 L13978,2360 L13983,2347 L13980,2316 L13985,2304 L13996,2189 L14001,2169 L14009,2160 L14008,2114 L13984,2102 L13889,1968 L13877,1962 L13873,1945 L13860,1926 L13843,1913 L13843,1900 L13825,1890 L13809,1839 L13786,1826 L13683,1688 L13677,1672 L13660,1656 L13645,1650 L13642,1618 L13630,1614 L13601,1574 L13586,1565 L13582,1548 L13559,1526 L13557,1501 L13537,1488 L13413,1318 L13406,1301 L13420,1276 L13421,1262 Z" fill="#763cc0" fill-opacity="0.45" stroke="#763cc0" stroke-width="6"/>
<path id="L5_sb011" d="M17022,1087 L16716,1092 L16645,1096 L16633,1104 L16626,1098 L15944,1121 L15914,1118 L15883,1126 L15767,1126 L15758,1122 L15723,1131 L15713,1128 L15406,1141 L15411,1161 L15448,1208 L15454,1225 L15465,1230 L15531,1319 L15531,1336 L15544,1352 L15552,1372 L15549,1386 L15555,1424 L15571,1436 L15573,1458 L15560,1491 L15564,1496 L15567,1708 L15572,1713 L15563,1770 L15568,1775 L15574,1881 L15575,2114 L15571,2132 L15576,2137 L15583,2278 L15581,2337 L15587,2345 L15582,2385 L15591,2680 L15590,2876 L15598,3021 L15596,3095 L15602,3099 L15610,3158 L15609,3347 L15618,3618 L15623,3641 L15630,3651 L15688,3662 L15782,3669 L16031,3644 L16077,3645 L16084,3593 L16095,3588 L16118,3588 L16124,3596 L16150,3599 L16640,3611 L16655,3451 L17019,3466 L17020,3263 L17027,3256 L17019,3242 L17020,2824 L17029,2814 L17020,2804 L17019,2690 L17025,2677 L17015,2676 L17020,2671 L17022,1664 L17018,1601 L17024,1577 L17020,1367 L17024,1349 Z" fill="#aaa557" fill-opacity="0.45" stroke="#aaa557" stroke-width="6"/>
<path id="L5_sb012" d="M28414,3049 L28408,3043 L28384,3044 L27714,3196 L27706,3203 L27677,3203 L27642,3208 L27633,3215 L27606,3215 L27582,3229 L27552,3232 L27156,3326 L27098,3334 L27076,3391 L27089,3496 L27093,3501 L27107,3649 L27112,3663 L27192,4350 L27216,4596 L27220,4603 L27225,4708 L27215,4721 L27177,4723 L27161,4736 L27139,4741 L27137,4759 L27112,4793 L27106,4816 L27092,4826 L27034,4846 L26792,4947 L26766,4949 L26759,4961 L26676,4997 L26627,5008 L26621,5002 L26380,5012 L26376,5051 L26370,5062 L26375,5067 L26380,5116 L26368,5143 L26354,5152 L26325,5155 L26297,5176 L26262,5192 L26257,5201 L26236,5205 L26213,5217 L26205,5228 L26181,5234 L26058,5300 L26053,5311 L28658,5311 L28690,5193 L28698,5144 L28715,5113 L28715,5091 L28707,5066 L28705,4978 L28693,4927 L28698,4919 L28698,4896 L28680,4837 L28659,4650 L28630,4476 L28621,4457 L28622,4430 L28569,4093 L28568,4059 L28576,4052 L28577,4030 L28574,4019 L28557,4008 L28555,3962 L28542,3907 L28517,3746 L28517,3722 L28509,3714 L28486,3548 L28479,3525 L28482,3497 L28478,3493 L28474,3439 L28468,3424 L28466,3384 L28445,3255 L28454,3246 L28450,3208 L28435,3198 L28434,3156 L28424,3098 L28415,3078 Z" fill="#5b3e80" fill-opacity="0.45" stroke="#5b3e80" stroke-width="6"/>
<path id="L5_sb013" d="M22258,1522 L22251,1564 L22252,1587 L22243,1596 L22243,1631 L22236,1642 L22242,1650 L22236,1838 L22242,1871 L22238,1876 L22232,2091 L22239,2122 L22234,2140 L22231,2395 L22227,2399 L22235,2452 L22230,2457 L22228,2793 L22221,2803 L22227,2811 L22220,3356 L22661,3355 L22670,3362 L22697,3362 L22702,3357 L22814,3345 L22819,3340 L22936,3325 L22945,3319 L22984,3312 L23104,3275 L23150,3266 L23164,3252 L23185,3250 L23255,3224 L23264,3231 L23286,3229 L23393,3202 L23419,3200 L23425,3204 L23438,3191 L23568,3161 L23659,3149 L23685,3154 L23693,3145 L23711,3139 L23738,3141 L24183,3079 L24982,2980 L24995,2968 L25005,2975 L25023,2977 L25027,2973 L25166,2957 L25177,2952 L25205,2952 L25538,2909 L25539,2878 L25549,2843 L25550,2822 L25443,2784 L25003,2608 L24983,2605 L24978,2596 L24950,2596 L24943,2584 L24897,2565 L24892,2558 L24846,2545 L24548,2423 L24543,2415 L24521,2412 L24395,2362 L24386,2352 L24362,2349 L24337,2334 L24314,2332 L24255,2304 L24228,2299 L24220,2291 L24138,2258 L24130,2249 L24090,2239 L24082,2224 L24078,2227 L24050,2222 L23946,2182 L23916,2176 L23909,2168 L23496,1996 L23435,1976 L23421,1964 L23388,1964 L23362,1948 L23319,1935 L23219,1890 L23186,1880 L23176,1869 L23109,1846 L23105,1839 L23082,1835 L23004,1802 L22964,1792 L22952,1782 L22870,1754 L22854,1743 L22838,1740 L22746,1701 L22739,1692 L22671,1675 L22667,1668 L22451,1581 L22427,1577 L22416,1566 L22377,1552 L22343,1525 L22332,1531 L22308,1534 L22264,1517 Z" fill="#62a5cf" fill-opacity="0.45" stroke="#62a5cf" stroke-width="6"/>
<path id="L5_sb014" d="M16814,4689 L16806,4683 L16790,4690 L16737,4780 L16727,4786 L16667,4767 L16548,4768 L16544,4772 L16530,4878 L16526,4883 L16395,4917 L16406,4786 L16424,4664 L16174,4707 L16181,4628 L16166,4626 L15994,4540 L15951,4525 L15946,4527 L15928,4620 L15760,4597 L15762,4573 L15879,4373 L15932,4307 L15936,4292 L15879,4262 L15855,4257 L15850,4248 L15617,4160 L15577,4150 L15562,4140 L15500,4119 L15471,4115 L15459,4107 L15127,4114 L15124,4123 L15103,4127 L15057,4155 L15050,4168 L15030,4168 L15022,4157 L15014,4155 L14968,4168 L14924,4160 L14888,4160 L14863,4152 L14850,4139 L14839,4139 L14814,4116 L14730,4117 L14707,4140 L14572,4141 L14549,4119 L14471,4119 L14464,4126 L14441,4126 L14434,4119 L14190,4116 L14048,4109 L14039,4116 L14039,4124 L14020,4138 L14007,4348 L13828,4337 L13808,4506 L13800,4651 L13805,4656 L13786,4858 L13770,4891 L13766,4914 L13759,4921 L13761,4932 L13752,4944 L13734,4955 L13694,5033 L13690,5052 L13681,5058 L13618,5167 L13610,5218 L13581,5250 L13580,5272 L13595,5280 L13603,5311 L16849,5311 L16843,5305 Z" fill="#4eadc3" fill-opacity="0.45" stroke="#4eadc3" stroke-width="6"/>
<path id="L5_sb015" d="M25555,2948 L25540,2912 L25526,2911 L25205,2953 L25177,2953 L25166,2958 L25027,2974 L25023,2978 L25005,2976 L24995,2969 L24982,2981 L24183,3080 L23738,3142 L23711,3140 L23693,3146 L23685,3155 L23659,3150 L23528,3170 L23435,3193 L23425,3205 L23419,3201 L23393,3203 L23286,3230 L23264,3232 L23255,3225 L23185,3251 L23164,3253 L23150,3267 L23104,3276 L22984,3313 L22945,3320 L22936,3326 L22819,3341 L22814,3346 L22702,3358 L22697,3363 L22670,3363 L22661,3356 L22218,3356 L22210,3428 L22219,3444 L22216,3523 L22209,3530 L22181,3529 L22165,3540 L22075,3871 L22063,3882 L22032,3946 L21886,4207 L21881,4226 L22111,4293 L22140,4297 L22144,4308 L22178,4311 L22181,4317 L22214,4322 L22293,4347 L22328,4353 L22336,4359 L22444,4383 L22449,4391 L22488,4398 L22499,4413 L22512,4408 L22539,4412 L22598,4431 L22623,4434 L22646,4445 L22855,4504 L22868,4514 L22910,4513 L22922,4491 L23096,4390 L23106,4376 L23166,4375 L23173,4361 L23173,4347 L23181,4339 L23221,4320 L23226,4308 L23263,4295 L23533,4134 L23545,4134 L23558,4121 L23822,3968 L23849,3960 L23852,3946 L23874,3940 L24024,3853 L24048,3846 L24059,3833 L24120,3799 L24127,3788 L24144,3785 L24291,3701 L24303,3690 L24316,3690 L24328,3678 L24359,3662 L24364,3650 L24389,3644 L24872,3364 L24901,3355 L24907,3344 L25205,3173 L25225,3156 L25241,3156 L25261,3139 L25463,3026 L25548,2972 L25557,2971 Z" fill="#a0a8a9" fill-opacity="0.45" stroke="#a0a8a9" stroke-width="6"/>
<path id="L5_sb016" d="M6963,2843 L6927,2836 L6882,2811 L6863,2810 L6616,3144 L6599,3156 L6594,3174 L6467,3340 L6459,3361 L6445,3368 L6268,3602 L6256,3607 L6252,3624 L6228,3654 L6224,3666 L6207,3677 L6204,3687 L6124,3791 L6119,3810 L6106,3815 L6079,3852 L6066,3858 L6060,3878 L5825,4187 L5824,4201 L5837,4218 L5843,4237 L5839,4280 L5831,4283 L5808,4309 L5771,4316 L5733,4309 L5541,4563 L5522,4576 L5517,4595 L5274,4910 L5259,4916 L5259,4939 L5241,4963 L5237,4986 L5217,4994 L5093,5154 L5078,5162 L5074,5178 L5002,5272 L4983,5311 L6735,5311 L6743,5219 L6750,5201 L6749,5166 L6770,4878 L6774,4869 L6799,4583 L6809,4551 L6805,4547 L6844,4111 L6849,4102 L6846,4077 L6853,4038 L6916,3382 Z" fill="#da477f" fill-opacity="0.45" stroke="#da477f" stroke-width="6"/>
<path id="L5_sb017" d="M25973,0 L25981,14 L26023,38 L26028,49 L26056,58 L26134,110 L26157,120 L26165,135 L26184,142 L26226,173 L26244,181 L26252,208 L26431,386 L26445,393 L26445,415 L26471,422 L26478,442 L26581,579 L26586,597 L26604,613 L26781,902 L26788,925 L26804,939 L26846,1008 L26852,1029 L26864,1037 L26962,1196 L27106,1492 L27106,1504 L27119,1522 L27217,1728 L27217,1740 L27224,1747 L27315,1954 L27324,1990 L27337,2004 L27372,2079 L27379,2105 L27393,2112 L27428,2270 L27426,2320 L27442,2356 L27436,2363 L27441,2411 L27445,2417 L27462,2421 L27471,2482 L27477,2488 L27481,2485 L27495,2498 L27526,2496 L27953,2398 L28004,2390 L28030,2364 L28046,2375 L28239,2335 L28240,2304 L28247,2298 L28250,2286 L28283,2257 L28278,2234 L28271,2227 L28273,2202 L28242,2107 L28239,2077 L28231,2066 L28189,1901 L28188,1871 L28180,1860 L28174,1829 L28163,1811 L28160,1793 L28152,1790 L28149,1766 L28124,1724 L28082,1633 L28070,1622 L28066,1600 L27905,1283 L27894,1274 L27894,1262 L27877,1237 L27740,958 L27729,921 L27718,912 L27691,858 L27681,853 L27668,812 L27641,765 L27633,732 L27612,708 L27564,616 L27561,596 L27551,589 L27505,499 L27484,480 L27480,455 L27455,409 L27451,388 L27441,379 L27397,289 L27375,267 L27357,196 L27343,193 L27337,185 L27337,163 L27306,104 L27304,86 L27332,54 L27349,0 Z" fill="#b8bf97" fill-opacity="0.45" stroke="#b8bf97" stroke-width="6"/>
<path id="L5_sb018" d="M7239,0 L6144,0 L6139,16 L6068,140 L6054,154 L5886,448 L5790,607 L5780,612 L5774,636 L5688,783 L5675,796 L5617,899 L5613,918 L5602,924 L5378,1310 L5365,1319 L5362,1336 L5267,1495 L5259,1520 L5326,1526 L5344,1521 L5524,1524 L5892,1511 L6025,1512 L6665,1499 L6989,1502 L7016,1493 L7011,1485 L7021,1421 L7034,1414 L7040,1369 L7047,1352 L7069,1328 L7116,1314 L7115,1283 L7145,942 L7167,753 L7156,742 L7155,722 L7176,662 L7186,580 L7194,572 L7185,558 L7203,409 L7199,389 L7212,257 L7216,254 L7216,193 L7221,184 Z" fill="#8ad7d9" fill-opacity="0.45" stroke="#8ad7d9" stroke-width="6"/>
<path id="L5_sb019" d="M29161,2853 L29105,2860 L29096,2878 L29061,2883 L29048,2893 L29020,2893 L29009,2900 L28964,2906 L28954,2913 L28909,2924 L28885,2925 L28881,2930 L28857,2931 L28690,2975 L28668,2976 L28654,2984 L28630,2986 L28462,3025 L28442,3034 L28420,3034 L28415,3050 L28416,3078 L28425,3098 L28435,3156 L28436,3198 L28451,3208 L28455,3246 L28446,3255 L28467,3384 L28469,3424 L28475,3439 L28479,3493 L28483,3497 L28480,3525 L28487,3548 L28510,3714 L28518,3722 L28518,3746 L28543,3907 L28556,3962 L28558,4008 L28575,4019 L28578,4030 L28577,4052 L28569,4059 L28570,4093 L28623,4430 L28622,4457 L28631,4476 L28660,4650 L28681,4837 L28699,4896 L28699,4919 L28694,4927 L28706,4978 L28708,5066 L28716,5091 L28716,5113 L28699,5144 L28691,5193 L28659,5311 L29545,5311 L29559,5264 L29570,5197 L29571,5119 L29551,4875 L29546,4865 L29535,4747 L29529,4732 L29518,4636 L29519,4602 L29513,4597 L29489,4424 L29481,4326 L29422,3984 L29419,3948 L29428,3939 L29410,3925 L29411,3886 L29402,3840 L29384,3822 L29205,3091 L29203,3069 L29211,3060 L29208,3050 L29199,3046 L29191,3025 L29161,2908 L29160,2894 L29171,2863 Z" fill="#5d91c3" fill-opacity="0.45" stroke="#5d91c3" stroke-width="6"/>
<path id="L5_sb020" d="M22214,5310 L26052,5311 L26058,5299 L26181,5233 L26205,5227 L26213,5216 L26236,5204 L26257,5200 L26262,5191 L26297,5175 L26325,5154 L26354,5151 L26369,5141 L26379,5111 L26374,5067 L26370,5063 L25920,5074 L25867,5080 L25853,5077 L25338,5091 L25327,5096 L25291,5092 L25073,5097 L24936,5085 L24862,5069 L24845,5068 L24840,5073 L24812,5060 L24786,5057 L24782,5049 L24745,5032 L24734,5036 L24704,5031 L24561,4992 L24553,4982 L24545,4985 L24486,4977 L24477,4970 L24440,4964 L24424,4955 L24200,4894 L24177,4892 L24169,4885 L24042,4846 L24035,4838 L24010,4836 L23858,4790 L23828,4786 L23819,4778 L23745,4758 L23736,4761 L23719,4749 L23530,4694 L23504,4691 L23501,4686 L23448,4675 L23443,4669 L23377,4653 L23371,4647 L23305,4635 L23301,4629 L23024,4552 L22999,4549 L22915,4520 L22911,4514 L22866,4514 L22858,4529 L22738,4597 L22704,4607 L22693,4604 L22681,4617 L22671,4642 L22648,4647 L22633,4662 L22618,4662 L22596,4679 L22444,4768 L22420,4774 L22417,4784 L22404,4794 L22399,4810 L22383,4816 L22379,4823 L22382,4843 L22370,4870 L22366,4894 L22370,4899 L22362,4904 L22358,4926 L22335,4975 L22324,4982 L22318,5011 L22274,5124 L22270,5150 L22241,5240 L22230,5251 L22230,5270 L22214,5286 Z" fill="#4c9a4a" fill-opacity="0.45" stroke="#4c9a4a" stroke-width="6"/>
<path id="L5_sb021" d="M11099,4711 L11172,4981 L11180,4993 L11259,5260 L11261,5278 L11226,5301 L11222,5311 L13602,5311 L13594,5280 L13579,5272 L13580,5250 L13609,5218 L13616,5189 L13581,5189 L13573,5174 L13529,5159 L13515,5145 L13349,5053 L13319,5044 L13311,5031 L13253,4993 L13134,4897 L13096,4882 L13086,4860 L13046,4830 L13038,4815 L13020,4810 L12959,4762 L12939,4757 L12936,4736 L12916,4730 L12833,4664 L12812,4659 L12808,4636 L12786,4630 L12653,4526 L12637,4491 L12543,4453 L12534,4432 L12310,4257 L12303,4238 L12289,4233 L12263,4231 L12246,4251 L12234,4406 L12165,4404 L12154,4397 L12036,4379 L12031,4453 L12027,4461 L11978,4469 L11912,4485 L11903,4492 L11879,4494 L11396,4623 L11384,4631 Z" fill="#5b4562" fill-opacity="0.45" stroke="#5b4562" stroke-width="6"/>
<path id="L5_sb022" d="M17022,1086 L17022,216 L16736,223 L16724,236 L16712,225 L16657,224 L15856,258 L15008,352 L15029,519 L15031,625 L15059,729 L15109,756 L15122,800 L15136,807 L15225,917 L15244,928 L15249,947 L15289,996 L15301,1003 L15321,1050 L15337,1059 L15378,1116 L15387,1140 L15713,1127 L15723,1130 L15758,1121 L15767,1125 L15883,1125 L15914,1117 L15944,1120 L16626,1097 L16633,1103 L16645,1095 L16716,1091 Z" fill="#6bccc1" fill-opacity="0.45" stroke="#6bccc1" stroke-width="6"/>
<path id="L5_sb023" d="M10598,3017 L10588,3012 L10290,2979 L9887,2945 L9873,2936 L9871,2949 L9860,2960 L9784,3088 L9770,3102 L9754,3134 L9600,3380 L9592,3407 L9579,3414 L9561,3444 L9551,3450 L9544,3472 L9447,3624 L9436,3650 L9423,3657 L9419,3671 L9303,3861 L9288,3875 L9283,3896 L9175,4074 L9165,4078 L9159,4100 L9061,4256 L9049,4288 L9037,4294 L8947,4435 L8939,4464 L8922,4480 L8935,4547 L8962,4580 L8996,4573 L9004,4541 L9024,4535 L9236,4391 L9265,4387 L9333,4360 L9375,4353 L9383,4340 L9404,4331 L9447,4324 L9452,4327 L9491,4311 L9505,4324 L9549,4313 L9562,4303 L9593,4295 L9612,4284 L9705,4250 L9757,4218 L9781,4217 L10247,4029 L10262,4017 L10297,4014 L10301,4018 L10305,4006 L10318,3995 L10349,3988 L10785,3812 L10838,3795 L10821,3719 L10813,3706 L10684,3247 L10682,3220 L10672,3206 L10665,3171 L10656,3163 L10632,3082 L10606,3043 Z" fill="#d4c9b2" fill-opacity="0.45" stroke="#d4c9b2" stroke-width="6"/>
<path id="L5_sb024" d="M23828,810 L23827,823 L23835,848 L24237,1287 L24278,1337 L24297,1348 L24340,1401 L24700,1795 L24719,1811 L24807,1909 L24812,1924 L24831,1935 L24928,2041 L24934,2058 L24950,2065 L25013,2134 L25018,2149 L25037,2160 L25254,2401 L25273,2414 L25274,2420 L25594,2765 L25609,2762 L25639,2744 L25679,2733 L25728,2732 L25781,2742 L25814,2643 L25824,2629 L25917,2379 L25925,2373 L25929,2346 L25953,2279 L25964,2272 L25964,2251 L25956,2241 L25952,2224 L25936,2214 L25834,2058 L25828,2037 L25819,2028 L25822,2005 L25484,1696 L25474,1677 L25459,1673 L25296,1521 L25285,1518 L25278,1499 L25266,1495 L25095,1334 L25079,1330 L25074,1316 L24969,1218 L24952,1213 L24941,1192 L24805,1067 L24788,1068 L24759,1059 L24717,1021 L24693,992 L24694,963 L24502,903 L24496,896 L24475,894 L24280,830 L24220,818 L23842,796 Z" fill="#5b5c88" fill-opacity="0.45" stroke="#5b5c88" stroke-width="6"/>
<path id="L5_sb025" d="M17641,1065 L17545,1060 L17317,1067 L17023,1085 L17025,1349 L17021,1367 L17025,1577 L17019,1601 L17023,1664 L17021,2671 L17016,2676 L17026,2677 L17020,2690 L17021,2804 L17030,2814 L17021,2824 L17020,3242 L17028,3256 L17047,3257 L17056,3277 L17138,3373 L17148,3377 L17226,3376 L17266,3308 L17289,3290 L17296,3297 L17296,3481 L17404,3483 L17406,3434 L17427,3429 L17569,3332 L17576,3323 L17580,3299 L17637,3303 L17640,3062 L17636,3057 L17635,2885 L17639,2872 L17634,2851 L17633,2751 L17643,2739 L17641,2732 L17622,2725 L17634,2712 L17626,2276 L17630,2201 L17627,1860 L17615,1850 L17623,1842 L17619,1747 L17623,1704 L17617,1161 L17623,1145 L17622,1102 L17639,1087 L17645,1069 Z" fill="#c1ca9a" fill-opacity="0.45" stroke="#c1ca9a" stroke-width="6"/>
<path id="L5_sb026" d="M11185,4407 L11178,4405 L11153,4407 L11062,4437 L11028,4443 L11019,4451 L10985,4457 L10744,4525 L10731,4524 L10715,4471 L10696,4460 L10565,4513 L10557,4526 L10514,4544 L10509,4540 L10500,4503 L10423,4532 L10399,4533 L10388,4549 L10313,4576 L10302,4586 L10175,4632 L9706,4823 L9700,4831 L9708,4863 L9713,4868 L9706,4875 L9675,4883 L9186,5084 L9169,5088 L9165,5085 L9155,5040 L9123,5034 L9116,5003 L9086,4935 L9044,4954 L9049,4961 L9055,5000 L9045,5008 L9009,5068 L8999,5076 L8964,5061 L8944,5062 L8906,5076 L8773,5153 L8747,5158 L8701,5212 L8668,5225 L8583,5295 L8573,5311 L11221,5311 L11226,5300 L11260,5278 L11258,5260 L11179,4993 L11171,4981 L11102,4716 L11094,4708 L11048,4525 L11051,4521 L11137,4504 L11202,4484 L11203,4464 Z" fill="#8ebcc3" fill-opacity="0.45" stroke="#8ebcc3" stroke-width="6"/>
<path id="L5_sb027" d="M28418,3044 L28414,3012 L28406,3001 L28408,2982 L28374,2749 L28376,2726 L28368,2718 L28351,2615 L28345,2536 L28330,2475 L28326,2427 L28312,2395 L28314,2359 L28276,2353 L28240,2335 L28046,2376 L28030,2365 L28004,2391 L27953,2399 L27526,2497 L27495,2499 L27481,2486 L27456,2512 L26315,2768 L26265,2776 L26256,2785 L26261,2822 L26272,2844 L26283,2916 L26298,2951 L26316,2960 L26349,2960 L26391,2970 L26404,2991 L26564,3069 L26568,3076 L26590,3080 L27027,3289 L27038,3308 L27079,3312 L27082,3321 L27098,3333 L27156,3325 L27552,3231 L27582,3228 L27606,3214 L27633,3214 L27642,3207 L27677,3202 L27706,3202 L27714,3195 L28384,3043 L28408,3042 L28415,3049 Z" fill="#4c7c44" fill-opacity="0.45" stroke="#4c7c44" stroke-width="6"/>
<path id="L5_sb028" d="M13288,531 L13299,572 L13325,573 L13619,530 L13625,525 L13680,519 L13687,512 L13732,517 L13738,510 L14004,476 L14158,453 L14164,448 L14288,433 L14304,434 L14313,476 L14356,479 L14402,463 L14409,422 L14418,417 L14460,414 L14465,419 L14473,409 L14789,378 L14796,374 L15475,298 L15522,297 L15856,257 L16657,223 L16712,224 L16724,235 L16736,222 L17230,212 L17232,161 L17239,155 L17264,151 L17266,0 L13876,0 L13866,17 L13808,41 L13797,70 L13705,153 L13700,168 L13682,173 L13567,277 L13554,281 L13549,299 L13537,303 L13442,390 L13425,396 L13418,412 L13290,524 Z" fill="#68ba9a" fill-opacity="0.45" stroke="#68ba9a" stroke-width="6"/>
<path id="L5_sb029" d="M7117,1315 L7159,1326 L7201,1327 L7215,1321 L7435,1147 L7457,1140 L7468,1121 L7493,1110 L7494,1093 L7518,1083 L7603,1016 L7612,1001 L7628,996 L7696,943 L7703,928 L7722,922 L7793,866 L7807,849 L7817,849 L8077,640 L8082,640 L8404,386 L8411,371 L8431,365 L8583,246 L8602,224 L8614,222 L8645,200 L8660,196 L8667,185 L8744,140 L8749,129 L8769,124 L8958,13 L8967,0 L7240,0 L7222,184 L7217,193 L7217,254 L7213,257 L7200,389 L7204,409 L7186,558 L7195,572 L7187,580 L7177,662 L7156,722 L7157,742 L7168,753 L7146,942 L7116,1283 Z" fill="#c1d281" fill-opacity="0.45" stroke="#c1d281" stroke-width="6"/>
<path id="L5_sb030" d="M6143,0 L5259,0 L5268,33 L5283,46 L5281,88 L5273,110 L5261,116 L5139,367 L5128,378 L5114,413 L5111,436 L5095,447 L5083,475 L5073,485 L5069,504 L5045,552 L5043,569 L5030,581 L4991,662 L4983,669 L4983,683 L4928,784 L4920,808 L4908,820 L4907,831 L4838,967 L4835,989 L4825,995 L4787,1070 L4785,1092 L4761,1098 L4753,1106 L4708,1206 L4703,1232 L4707,1242 L4693,1267 L4678,1277 L4671,1305 L4593,1465 L4592,1484 L4582,1487 L4589,1494 L4587,1560 L4618,1554 L4658,1533 L4767,1536 L4772,1540 L4773,1535 L4990,1527 L5240,1525 L5258,1521 L5266,1495 L5361,1336 L5364,1319 L5377,1310 L5602,923 L5612,918 L5616,899 L5674,796 L5687,783 L5773,636 L5779,612 L5789,607 L5885,448 L6053,154 L6067,140 L6138,16 Z" fill="#9759b4" fill-opacity="0.45" stroke="#9759b4" stroke-width="6"/>
<path id="L5_sb031" d="M27845,590 L27830,606 L27753,656 L27748,669 L27731,672 L27664,722 L27638,728 L27634,740 L27640,746 L27642,765 L27677,830 L27682,853 L27692,858 L27719,912 L27730,921 L27741,958 L27878,1237 L27895,1262 L27895,1274 L27906,1283 L28067,1600 L28071,1622 L28083,1633 L28125,1724 L28151,1768 L28153,1790 L28161,1793 L28164,1811 L28178,1839 L28181,1860 L28189,1871 L28190,1901 L28232,2066 L28240,2077 L28246,2118 L28274,2202 L28272,2227 L28279,2234 L28283,2256 L28322,2261 L28350,2277 L28759,2179 L28850,2180 L28859,2171 L28841,2144 L28836,2095 L28873,2089 L28872,2065 L28790,1704 L28788,1681 L28795,1672 L28750,1519 L28715,1524 L28639,1193 L28600,1084 L28549,991 L28507,937 L28402,820 L28391,784 L28185,530 L28132,558 L28078,558 L28028,547 L28023,538 L27985,507 L27974,502 Z" fill="#825fab" fill-opacity="0.45" stroke="#825fab" stroke-width="6"/>
<path id="L5_sb032" d="M9429,0 L9435,11 L9520,61 L9531,75 L9549,79 L9595,105 L9611,120 L9713,180 L9735,186 L9743,200 L9866,275 L9892,280 L9921,315 L9952,324 L10060,389 L10066,400 L10095,400 L10101,413 L10388,586 L10394,598 L10420,598 L10434,615 L10468,635 L10483,638 L10490,649 L10682,764 L10690,778 L10716,778 L10722,789 L10774,820 L10780,832 L10820,838 L10829,857 L10856,875 L10883,903 L10892,907 L10920,907 L10923,918 L10931,913 L10963,911 L10975,925 L11027,921 L11025,898 L11013,860 L11023,849 L11197,753 L11506,606 L11539,596 L11535,562 L11516,523 L11525,500 L11523,489 L11245,148 L11229,139 L11225,125 L11131,12 L11128,0 Z" fill="#508449" fill-opacity="0.45" stroke="#508449" stroke-width="6"/>
<path id="L5_sb033" d="M15383,1137 L15375,1113 L15336,1059 L15320,1050 L15302,1006 L15288,996 L15248,947 L15243,928 L15224,917 L15135,807 L15121,800 L15108,756 L15058,729 L15030,625 L15028,519 L15005,353 L14473,410 L14465,420 L14460,415 L14412,419 L14404,462 L14353,480 L14346,498 L14331,509 L14325,520 L14305,526 L14220,585 L14214,598 L14177,608 L14174,617 L14136,644 L14130,655 L14114,659 L14058,699 L14038,704 L14036,713 L14021,730 L13993,736 L13985,750 L13872,824 L13860,839 L13853,840 L13709,941 L13699,943 L13685,960 L13659,974 L13650,988 L13624,998 L13365,1180 L13422,1264 L13959,1222 L13990,1221 L14007,1229 L14021,1218 L14166,1210 L14358,1191 L14502,1186 L14637,1175 L14682,1178 L14756,1165 L14982,1156 L15081,1147 L15158,1147 L15172,1141 L15182,1146 L15377,1141 Z" fill="#ce708d" fill-opacity="0.45" stroke="#ce708d" stroke-width="6"/>
<path id="L5_sb034" d="M18666,179 L18650,164 L18478,95 L18461,68 L18211,100 L18187,87 L18179,94 L18114,101 L18100,117 L17843,154 L17436,205 L17268,212 L17270,315 L17275,320 L17277,382 L17272,389 L17273,512 L17265,521 L17266,581 L17246,1070 L17589,1059 L17598,1063 L17641,1064 L17647,1068 L17669,1065 L17682,1058 L17688,1063 L17727,1058 L17730,1053 L17723,1021 L17778,974 L17784,959 L17802,954 L17851,915 L17870,910 L17885,869 L17920,846 L17927,829 L17963,826 L17971,815 L18155,664 L18185,647 L18190,636 L18257,582 L18267,566 L18282,566 L18290,553 L18394,466 L18411,460 L18418,470 L18446,486 L18466,487 L18504,407 L18518,358 L18532,354 L18609,261 L18614,244 L18644,228 L18648,211 L18661,196 Z" fill="#5276b0" fill-opacity="0.45" stroke="#5276b0" stroke-width="6"/>
<path id="L5_sb035" d="M10976,926 L10976,941 L10983,955 L11122,1101 L11132,1123 L11150,1123 L11158,1142 L11192,1176 L11196,1187 L11216,1187 L11223,1203 L11441,1419 L11483,1468 L11508,1478 L11525,1507 L11706,1684 L11713,1704 L11734,1704 L11741,1719 L11769,1745 L11784,1750 L11803,1791 L11819,1796 L11898,1881 L11918,1887 L11925,1908 L11953,1935 L11973,1942 L11978,1980 L11990,1985 L12000,2002 L12016,2012 L12016,2030 L12022,2038 L12167,2051 L12172,2046 L12174,2021 L12214,2002 L12227,1964 L12232,1898 L12238,1893 L12237,1846 L12253,1623 L12247,1591 L12155,1588 L12136,1576 L12172,1257 L12188,1036 L12192,1033 L12200,923 L12204,916 L12203,836 L12214,824 L12217,761 L12190,761 L12181,755 L12148,752 L11826,804 L11765,810 L11759,815 L11444,860 L11433,866 L11074,918 Z" fill="#98408e" fill-opacity="0.45" stroke="#98408e" stroke-width="6"/>
<path id="L5_sb036" d="M5258,0 L4759,0 L4747,12 L4740,28 L4733,33 L4717,76 L4552,397 L4528,478 L4525,504 L4530,511 L4509,556 L4510,577 L4334,892 L4313,902 L4288,941 L4221,1079 L4197,1166 L4192,1227 L4187,1232 L4136,1510 L4134,1541 L4165,1541 L4177,1550 L4182,1530 L4191,1539 L4470,1533 L4510,1561 L4542,1574 L4569,1568 L4584,1558 L4589,1543 L4588,1494 L4581,1487 L4591,1484 L4592,1465 L4670,1305 L4677,1277 L4692,1267 L4706,1242 L4702,1232 L4707,1206 L4752,1106 L4761,1097 L4784,1092 L4786,1070 L4824,995 L4834,989 L4837,967 L4906,831 L4907,820 L4919,808 L4927,784 L4982,683 L4982,669 L4990,662 L5029,581 L5042,569 L5044,552 L5068,504 L5072,485 L5082,475 L5094,447 L5110,436 L5113,413 L5127,378 L5138,367 L5260,116 L5272,110 L5280,88 L5282,46 L5267,33 Z" fill="#605046" fill-opacity="0.45" stroke="#605046" stroke-width="6"/>
<path id="L5_sb037" d="M12919,641 L12314,729 L12308,734 L12243,744 L12215,764 L12218,802 L12214,828 L12204,836 L12205,916 L12201,923 L12193,1033 L12189,1036 L12173,1257 L12137,1576 L12160,1588 L12248,1591 L12255,1645 L12238,1892 L12255,1898 L12262,1907 L12277,1912 L12311,1886 L12346,1880 L12371,1862 L12378,1849 L12397,1844 L12457,1803 L12469,1785 L12491,1779 L12667,1657 L12664,1627 L12687,1608 L12732,1612 L12844,1539 L12851,1526 L12870,1521 L12989,1436 L12983,1430 L12964,1364 L12953,1062 L12932,1049 L12919,1015 L12931,1002 L12953,995 L12939,728 L12934,723 L12919,670 Z" fill="#5b4bb8" fill-opacity="0.45" stroke="#5b4bb8" stroke-width="6"/>
<path id="L5_sb038" d="M12304,4238 L12315,4261 L12534,4431 L12543,4452 L12637,4490 L12653,4525 L12786,4629 L12808,4635 L12812,4658 L12833,4663 L12916,4729 L12936,4735 L12939,4756 L12959,4761 L13020,4809 L13038,4814 L13046,4829 L13087,4860 L13096,4881 L13134,4896 L13253,4992 L13311,5030 L13319,5043 L13349,5052 L13515,5144 L13529,5158 L13573,5173 L13581,5188 L13615,5188 L13618,5165 L13680,5058 L13689,5052 L13693,5033 L13733,4955 L13752,4943 L13760,4932 L13758,4921 L13765,4914 L13769,4891 L13785,4858 L13804,4656 L13799,4651 L13807,4506 L13828,4336 L12867,4273 L12449,4241 L12320,4234 Z" fill="#5282c5" fill-opacity="0.45" stroke="#5282c5" stroke-width="6"/>
<path id="L5_sb039" d="M22865,4513 L22855,4505 L22646,4446 L22623,4435 L22598,4432 L22539,4413 L22512,4409 L22499,4414 L22488,4399 L22449,4392 L22444,4384 L22336,4360 L22328,4354 L22293,4348 L22214,4323 L22181,4318 L22178,4312 L22144,4309 L22140,4298 L22111,4294 L21871,4227 L21866,4244 L21765,4428 L21753,4441 L21753,4459 L21742,4467 L21539,4831 L21524,4871 L21399,5086 L21389,5092 L21384,5113 L21343,5184 L21339,5198 L21326,5210 L21314,5253 L21320,5262 L21297,5269 L21289,5279 L21278,5311 L21725,5311 L21727,5296 L21751,5244 L21755,5218 L21763,5213 L21776,5186 L21781,5160 L21812,5125 L21839,5119 L21875,5098 L21938,5086 L21946,5078 L21956,5080 L21975,5049 L22058,5000 L22139,4970 L22142,4957 L22165,4934 L22260,4876 L22267,4864 L22291,4857 L22339,4826 L22377,4824 L22384,4814 L22398,4810 L22403,4794 L22416,4784 L22420,4773 L22444,4767 L22596,4678 L22618,4661 L22633,4661 L22648,4646 L22671,4641 L22680,4617 L22693,4603 L22704,4606 L22738,4596 L22858,4528 Z" fill="#7b9a4a" fill-opacity="0.45" stroke="#7b9a4a" stroke-width="6"/>
<path id="L5_sb040" d="M21004,3237 L20997,3252 L21015,3449 L21070,3533 L21074,3558 L21093,3566 L21178,3682 L21183,3700 L21201,3713 L21478,4078 L21504,4099 L21531,4103 L21546,4110 L21550,4118 L21570,4122 L21607,4142 L21615,4155 L21649,4160 L21731,4186 L21758,4189 L21768,4197 L21880,4226 L21885,4207 L22031,3946 L22062,3882 L22074,3871 L22164,3540 L22181,3528 L22209,3529 L22215,3523 L22218,3444 L22209,3428 L22216,3358 L21768,3355 L21424,3331 L21311,3304 L21304,3296 L21281,3293 L21136,3231 L21093,3219 L21090,3224 L21040,3227 Z" fill="#b675cf" fill-opacity="0.45" stroke="#b675cf" stroke-width="6"/>
<path id="L5_sb041" d="M11992,324 L11991,350 L11983,377 L11987,389 L12042,483 L12047,503 L12057,509 L12120,618 L12131,646 L12145,656 L12145,667 L12154,685 L12148,751 L12181,754 L12190,760 L12219,761 L12243,743 L12308,733 L12314,728 L12624,685 L12886,642 L12942,642 L12960,630 L13237,588 L13254,534 L13091,315 L13074,286 L13058,274 L13056,265 L13022,218 L13011,213 L13003,192 L12922,83 L12919,72 L12903,65 L12899,51 L12870,13 L12866,0 L12503,0 L12493,18 L12437,51 L12431,63 L12413,66 L12369,92 L12350,96 L12338,111 L12251,161 L12247,171 L12231,174 L12154,221 L12136,225 L12130,236 L12059,277 L12050,290 L12026,297 L11997,316 Z" fill="#44c4b5" fill-opacity="0.45" stroke="#44c4b5" stroke-width="6"/>
<path id="L5_sb042" d="M29113,2139 L29090,2141 L29022,2163 L28999,2166 L28996,2193 L28982,2221 L28973,2230 L28957,2230 L28944,2244 L28916,2253 L28912,2245 L28911,2208 L28894,2181 L28859,2172 L28850,2181 L28759,2180 L28350,2278 L28322,2262 L28283,2258 L28251,2286 L28248,2298 L28241,2304 L28241,2335 L28276,2352 L28313,2355 L28315,2359 L28313,2395 L28327,2427 L28331,2475 L28346,2536 L28352,2615 L28369,2718 L28377,2726 L28375,2749 L28409,2982 L28407,3001 L28414,3009 L28415,3030 L28419,3034 L28442,3033 L28462,3024 L28630,2985 L28654,2983 L28668,2975 L28690,2974 L28857,2930 L28909,2923 L28954,2912 L28964,2905 L29009,2899 L29020,2892 L29048,2892 L29061,2882 L29096,2877 L29102,2868 L29098,2838 L29063,2689 L29056,2632 L29041,2620 L29038,2568 L29050,2556 L29070,2553 L29089,2542 L29094,2531 L29119,2520 L29176,2475 L29183,2465 L29150,2312 L29148,2285 L29123,2205 Z" fill="#48d077" fill-opacity="0.45" stroke="#48d077" stroke-width="6"/>
<path id="L5_sb043" d="M10599,3017 L10607,3043 L10633,3082 L10657,3163 L10666,3171 L10673,3206 L10683,3220 L10691,3269 L10840,3790 L11008,3717 L11531,3508 L11589,3496 L11603,3482 L11621,3480 L11627,3466 L11619,3458 L11619,3436 L11631,3431 L11642,3416 L11707,3409 L11713,3402 L11742,3390 L11732,3364 L11729,3322 L11743,3128 L11624,3114 L11597,3116 L11566,3107 L10643,3017 Z" fill="#cbaa5f" fill-opacity="0.45" stroke="#cbaa5f" stroke-width="6"/>
<path id="L5_sb044" d="M27305,86 L27307,104 L27336,157 L27338,185 L27343,192 L27358,196 L27376,267 L27402,296 L27442,379 L27453,390 L27456,409 L27481,455 L27485,480 L27506,499 L27552,589 L27562,596 L27565,616 L27613,708 L27633,731 L27664,721 L27731,671 L27748,668 L27753,655 L27830,605 L27845,589 L27973,501 L28023,537 L28028,546 L28071,556 L28132,557 L28178,536 L28191,520 L28208,511 L28208,500 L28221,491 L28243,450 L28243,388 L28226,323 L28269,291 L28306,281 L28315,267 L28315,251 L28303,235 L28227,79 L28224,59 L28213,50 L28192,0 L27350,0 L27333,54 Z" fill="#a03cbe" fill-opacity="0.45" stroke="#a03cbe" stroke-width="6"/>
<path id="L5_sb045" d="M21074,3559 L21070,3563 L21070,3635 L21075,3723 L21155,3725 L21163,3750 L21368,4155 L21372,4178 L21390,4187 L21528,4215 L21539,4247 L21531,4257 L21141,4449 L21120,4453 L21156,5060 L21150,5134 L21156,5146 L21262,5209 L21279,5235 L21285,5254 L21305,5265 L21319,5262 L21313,5253 L21325,5210 L21338,5198 L21342,5184 L21383,5113 L21388,5092 L21398,5086 L21523,4871 L21538,4831 L21741,4467 L21752,4459 L21752,4441 L21764,4428 L21864,4246 L21871,4226 L21768,4198 L21758,4190 L21731,4187 L21649,4161 L21615,4156 L21607,4143 L21570,4123 L21550,4119 L21546,4111 L21536,4106 L21504,4100 L21494,4093 L21445,4037 L21200,3713 L21182,3700 L21177,3682 L21094,3568 Z" fill="#be3dd3" fill-opacity="0.45" stroke="#be3dd3" stroke-width="6"/>
<path id="L5_sb046" d="M8835,4592 L8814,4572 L8808,4555 L8781,4546 L8773,4530 L8618,4504 L8612,4513 L8574,4531 L8559,4544 L8541,4548 L8446,4595 L8432,4595 L8415,4608 L8309,4654 L8292,4668 L8267,4673 L8188,4710 L8166,4714 L8153,4701 L8017,4762 L8004,4770 L7986,4804 L7902,4839 L7896,4849 L7868,4855 L7761,4908 L7731,4916 L7726,4926 L7681,4948 L7655,4955 L7651,4966 L7605,5020 L7584,5035 L7585,5085 L7565,5149 L7562,5177 L7529,5311 L8297,5311 L8292,5299 L8158,5173 L8150,5171 L8143,5159 L8172,5130 L8499,4874 L8508,4858 L8538,4845 L8599,4797 L8621,4794 L8635,4779 L8693,4742 L8698,4731 L8718,4726 L8853,4638 L8843,4628 Z" fill="#924f72" fill-opacity="0.45" stroke="#924f72" stroke-width="6"/>
<path id="L5_sb047" d="M11941,3550 L11927,3531 L11890,3526 L11870,3496 L11826,3483 L11815,3465 L11771,3449 L11729,3449 L11707,3410 L11644,3416 L11631,3432 L11620,3436 L11620,3458 L11628,3466 L11622,3480 L11603,3483 L11589,3497 L11531,3509 L11008,3718 L10861,3784 L10844,3787 L10841,3794 L10868,3900 L10876,3913 L10944,4171 L10968,4171 L11090,4121 L11132,4113 L11255,4060 L11443,3994 L11545,3950 L11625,3928 L11634,3928 L11642,3936 L11692,3943 L11716,3964 L11767,3968 L11843,3982 L11895,3979 L11900,3921 L11905,3919 L11937,3559 Z" fill="#d48985" fill-opacity="0.45" stroke="#d48985" stroke-width="6"/>
<path id="L5_sb048" d="M17299,3648 L17290,4523 L17350,4511 L17358,4434 L17367,4406 L17376,4402 L17584,4423 L17612,4421 L17622,4405 L17890,4425 L18147,4452 L18194,4448 L18175,4395 L18119,4289 L18081,4226 L18038,4180 L18010,4172 L17995,4157 L17988,4135 L17931,4087 L17877,4052 L17822,4023 L17759,4003 L17756,3997 L17693,3975 L17667,3971 L17687,3746 L17710,3744 L17758,3766 L17941,3803 L17974,3805 L17982,3797 L17990,3774 L17983,3766 L17954,3765 L17758,3721 L17713,3715 L17701,3705 L17622,3698 L17409,3663 L17406,3659 Z" fill="#bd457c" fill-opacity="0.45" stroke="#bd457c" stroke-width="6"/>
<path id="L5_sb049" d="M16032,3988 L16023,4059 L16018,4066 L15974,4302 L15976,4315 L15997,4319 L16224,4436 L16230,4445 L16261,4454 L16450,4551 L16482,4556 L16581,4589 L16611,4594 L16804,4650 L16809,4655 L16809,4682 L16815,4689 L16817,4742 L16911,4762 L16915,4786 L16949,4868 L16971,4902 L16978,4928 L16994,4942 L17064,4924 L17067,4903 L17082,4867 L17104,4790 L17107,4759 L17202,4761 L17284,4754 L17288,4672 L17274,4656 L17286,4643 L17331,4649 L17562,4722 L17591,4726 L17601,4611 L17597,4550 L17370,4530 L17354,4521 L17350,4513 L17291,4524 L17290,4534 L17262,4532 L16852,4464 L16798,4459 L16645,4423 L16639,4418 L16637,4396 L16631,4390 L16573,4374 L16530,4353 L16508,4351 L16503,4356 L16458,4339 L16348,4261 L16388,3933 Z" fill="#a4d3b5" fill-opacity="0.45" stroke="#a4d3b5" stroke-width="6"/>
<path id="L5_sb050" d="M20664,3566 L20648,3572 L20605,3616 L20586,3622 L20583,3649 L20564,3656 L20499,3721 L20482,3726 L20479,3740 L20454,3765 L20446,3786 L20408,3798 L20401,3819 L20189,4032 L20171,4041 L20163,4058 L20050,4169 L20045,4185 L20439,4419 L20446,4435 L20442,4452 L20403,4483 L20393,4497 L20535,4622 L20553,4629 L20558,4644 L20662,4766 L20678,4772 L20683,4792 L20723,4851 L20762,4894 L20791,4900 L20849,4929 L20867,4861 L20867,4796 L20844,4412 L20671,4421 L20659,4239 L20648,4201 L20636,4194 L20638,4159 L20655,4092 L20689,3801 L20670,3568 Z" fill="#9760ae" fill-opacity="0.45" stroke="#9760ae" stroke-width="6"/>
<path id="L5_sb051" d="M18291,4167 L18292,4212 L18360,4326 L18360,4333 L18405,4415 L18469,4468 L18486,4473 L18494,4449 L18511,4327 L18522,4326 L19278,4435 L19287,4440 L19456,4462 L19469,4467 L19657,4490 L19654,4460 L19631,4378 L19617,4361 L19531,4298 L19411,4265 L19195,4232 L19045,4220 L19010,4213 L19039,4015 L19045,4005 L19068,4006 L19108,4019 L19174,4026 L19189,4011 L19274,4016 L19281,4005 L19278,3983 L19241,3981 L19055,3950 L19039,3940 L18989,3938 L18503,3866 L18492,3875 L18492,3882 L18513,3902 L18664,3935 L18676,3951 L18666,3961 L18636,3960 L18473,3934 L18431,4118 L18427,4153 L18305,4152 L18297,4155 Z" fill="#9d9381" fill-opacity="0.45" stroke="#9d9381" stroke-width="6"/>
<path id="L5_sb052" d="M17275,4656 L17290,4674 L17309,4676 L17438,4717 L17453,4727 L17482,4731 L17585,4761 L17582,4826 L17564,4971 L17575,4975 L17612,5013 L17629,5022 L17634,5040 L17645,5043 L17683,5076 L17690,5092 L17711,5101 L17822,5210 L17842,5216 L17849,5232 L17901,5281 L17911,5311 L18402,5311 L18410,5240 L18451,5233 L18561,5198 L18588,5196 L18595,5185 L18605,5053 L18430,5038 L18439,4911 L18196,4887 L18195,4811 L17966,4797 L17896,4788 L17591,4733 L17585,4726 L17562,4723 L17331,4650 L17286,4644 Z" fill="#ce5e5a" fill-opacity="0.45" stroke="#ce5e5a" stroke-width="6"/>
<path id="L5_sb053" d="M11129,3 L11132,12 L11226,125 L11230,139 L11246,148 L11524,489 L11526,500 L11517,523 L11542,582 L11563,576 L11591,558 L11603,544 L11612,544 L11909,354 L11929,354 L11935,364 L11983,376 L11991,324 L11997,315 L12031,293 L12050,289 L12059,276 L12130,235 L12136,224 L12154,220 L12231,173 L12247,170 L12251,160 L12338,110 L12350,95 L12369,91 L12413,65 L12431,62 L12437,50 L12493,17 L12502,0 Z" fill="#899dae" fill-opacity="0.45" stroke="#899dae" stroke-width="6"/>
<path id="L5_sb054" d="M14352,480 L14313,477 L14305,456 L14303,434 L14164,449 L14158,454 L14004,477 L13738,511 L13732,518 L13687,513 L13680,520 L13625,526 L13619,531 L13303,576 L13298,572 L13287,531 L13254,535 L13240,588 L13263,622 L13272,760 L13269,777 L13280,796 L13274,804 L13295,1040 L13289,1078 L13364,1179 L13624,997 L13650,987 L13659,973 L13685,959 L13699,942 L13709,940 L13853,839 L13860,838 L13872,823 L13985,749 L13993,735 L14021,729 L14038,703 L14058,698 L14114,658 L14130,654 L14136,643 L14170,620 L14177,607 L14214,597 L14220,584 L14305,525 L14325,519 L14330,509 L14345,498 Z" fill="#5f593d" fill-opacity="0.45" stroke="#5f593d" stroke-width="6"/>
<path id="L5_sb055" d="M28276,289 L28227,323 L28244,388 L28244,450 L28222,491 L28209,500 L28209,511 L28185,529 L28392,784 L28403,820 L28508,937 L28550,991 L28602,1086 L28640,1193 L28715,1523 L28747,1516 L28751,1519 L28796,1672 L28789,1681 L28791,1704 L28873,2065 L28873,2090 L28837,2095 L28842,2144 L28860,2171 L28895,2181 L28912,2208 L28914,2250 L28940,2245 L28957,2229 L28973,2229 L28994,2196 L28998,2167 L28992,2162 L28984,2121 L29039,2119 L29092,2107 L29102,2098 L29090,2049 L29084,2041 L29073,1960 L29067,1954 L28985,1574 L28934,1477 L28930,1457 L28917,1454 L28913,1433 L28726,1068 L28720,1043 L28707,1030 L28691,998 L28687,979 L28678,973 L28589,797 L28584,775 L28571,762 L28377,375 L28317,289 L28307,281 Z" fill="#8e50bc" fill-opacity="0.45" stroke="#8e50bc" stroke-width="6"/>
<path id="L5_sb056" d="M11936,3586 L11906,3920 L12546,3973 L12879,3988 L12907,3683 L12901,3677 L12902,3655 L12909,3644 L12690,3620 L12676,3633 L12191,3583 L12165,3582 L12153,3593 L12058,3583 L12046,3594 Z" fill="#adda64" fill-opacity="0.45" stroke="#adda64" stroke-width="6"/>
<path id="L5_sb057" d="M3943,4537 L3888,4537 L3827,4523 L3823,4513 L3803,4493 L3790,4489 L3728,4528 L3697,4553 L3672,4559 L3671,4541 L3667,4537 L3649,4537 L3640,4543 L3629,4568 L3607,4573 L3562,4600 L3557,4609 L3554,4644 L3541,4660 L3530,4765 L3500,4936 L3499,4958 L3507,4966 L3478,5102 L3444,5224 L3427,5311 L3902,5311 L3914,5212 L3923,5166 L3931,5156 L3931,5117 L3941,5079 L3959,4894 L3956,4886 L3934,4875 L3931,4864 Z" fill="#868bb0" fill-opacity="0.45" stroke="#868bb0" stroke-width="6"/>
<path id="L5_sb058" d="M17686,3749 L17668,3971 L17693,3974 L17756,3996 L17759,4002 L17822,4022 L17877,4051 L17931,4086 L17988,4134 L17996,4157 L18010,4171 L18038,4179 L18082,4226 L18120,4289 L18176,4395 L18195,4447 L18226,4435 L18339,4345 L18359,4334 L18359,4326 L18291,4212 L18290,4167 L18296,4155 L18305,4151 L18426,4153 L18430,4118 L18470,3936 L18475,3933 L18636,3959 L18666,3960 L18675,3951 L18664,3936 L18513,3903 L18491,3882 L18491,3875 L18504,3865 L18649,3885 L18653,3842 L18646,3835 L18637,3844 L18611,3846 L18502,3824 L18497,3861 L18490,3868 L18481,3860 L18225,3816 L18212,3810 L18113,3796 L18082,3784 L18011,3781 L17998,3773 L17990,3775 L17983,3797 L17974,3806 L17941,3804 L17758,3767 L17710,3745 Z" fill="#cfd691" fill-opacity="0.45" stroke="#cfd691" stroke-width="6"/>
<path id="L5_sb059" d="M19522,4677 L19510,4672 L19267,4644 L19252,4639 L18945,4606 L18892,4877 L18888,4873 L18809,4864 L18196,4813 L18195,4885 L18439,4910 L18430,5037 L18605,5052 L18606,5086 L18596,5185 L18617,5182 L18816,5121 L18848,5117 L18856,5106 L18883,5102 L19083,5038 L19106,5035 L19122,5018 L19153,5020 L19197,4991 L19205,4991 L19216,4983 L19246,4979 L19253,4963 L19283,4934 L19288,4917 L19307,4911 L19434,4784 L19517,4695 Z" fill="#75cd9a" fill-opacity="0.45" stroke="#75cd9a" stroke-width="6"/>
<path id="L5_sb060" d="M20036,5310 L20031,5300 L19479,5041 L19430,5014 L19353,4990 L19255,4986 L19246,4980 L19216,4984 L19205,4992 L19197,4992 L19153,5021 L19122,5019 L19106,5036 L19083,5039 L18883,5103 L18856,5107 L18848,5118 L18816,5122 L18623,5182 L18598,5185 L18588,5197 L18561,5199 L18451,5234 L18410,5241 L18403,5308 Z" fill="#add8c4" fill-opacity="0.45" stroke="#add8c4" stroke-width="6"/>
<path id="L5_sb061" d="M12153,685 L12144,667 L12144,656 L12130,646 L12129,636 L12062,519 L12046,503 L12041,483 L11982,377 L11935,365 L11929,355 L11909,355 L11612,545 L11603,545 L11591,559 L11563,577 L11540,583 L11539,597 L11506,607 L11197,754 L11033,844 L11014,860 L11026,898 L11028,921 L11433,865 L11444,859 L12144,753 L12151,731 Z" fill="#b9ca5b" fill-opacity="0.45" stroke="#b9ca5b" stroke-width="6"/>
<path id="L5_sb062" d="M12867,1 L12871,13 L12900,51 L12904,65 L12920,72 L12923,83 L13004,192 L13012,213 L13023,218 L13057,265 L13059,274 L13075,286 L13092,315 L13255,534 L13287,530 L13290,523 L13418,411 L13425,395 L13442,389 L13537,302 L13549,298 L13554,280 L13567,276 L13682,172 L13700,167 L13704,153 L13796,70 L13808,40 L13866,16 L13875,0 Z" fill="#c1d658" fill-opacity="0.45" stroke="#c1d658" stroke-width="6"/>
<path id="L5_sb063" d="M13239,588 L12960,631 L12947,642 L12918,645 L12920,670 L12935,723 L12940,728 L12954,995 L12931,1003 L12920,1015 L12933,1049 L12954,1062 L12965,1364 L12984,1430 L12990,1436 L13001,1436 L13028,1410 L13362,1180 L13288,1078 L13294,1040 L13273,804 L13279,796 L13268,777 L13271,760 L13262,622 Z" fill="#5f3f53" fill-opacity="0.45" stroke="#5f3f53" stroke-width="6"/>
<path id="L5_sb064" d="M17289,4674 L17284,4755 L17278,5136 L17283,5282 L17290,5289 L17289,5311 L17910,5311 L17900,5281 L17848,5232 L17842,5217 L17822,5211 L17711,5102 L17690,5093 L17683,5077 L17645,5044 L17634,5041 L17629,5023 L17618,5019 L17575,4976 L17563,4971 L17581,4826 L17584,4761 L17482,4732 L17453,4728 L17438,4718 Z" fill="#bf9b3e" fill-opacity="0.45" stroke="#bf9b3e" stroke-width="6"/>
<path id="L5_sb065" d="M16085,3593 L16079,3646 L16380,3657 L16508,3655 L16658,3660 L16669,3671 L16802,3668 L16956,3679 L16938,4144 L17187,4171 L17196,4162 L17211,4162 L17223,4176 L17291,4181 L17298,3645 L17001,3633 L16905,3621 L16770,3617 L16708,3621 L16703,3615 L16150,3600 L16124,3597 L16118,3589 Z" fill="#72ceab" fill-opacity="0.45" stroke="#72ceab" stroke-width="6"/>
<path id="L5_sb066" d="M16818,4746 L16844,5305 L16850,5311 L17288,5311 L17289,5289 L17282,5282 L17277,5136 L17284,4756 L17202,4762 L17107,4760 L17105,4790 L17083,4867 L17068,4903 L17065,4924 L16994,4943 L16977,4928 L16970,4902 L16948,4868 L16914,4786 L16910,4762 Z" fill="#b8b361" fill-opacity="0.45" stroke="#b8b361" stroke-width="6"/>
<path id="L5_sb067" d="M15759,4591 L15763,4597 L15928,4619 L15945,4527 L15951,4524 L15994,4539 L16166,4625 L16181,4627 L16182,4650 L16174,4706 L16424,4663 L16395,4916 L16526,4882 L16543,4772 L16548,4767 L16667,4766 L16727,4785 L16736,4780 L16789,4690 L16808,4682 L16808,4655 L16804,4651 L16611,4595 L16581,4590 L16482,4557 L16450,4552 L16261,4455 L16230,4446 L16224,4437 L15997,4320 L15976,4316 L15973,4302 L15938,4296 L15880,4373 L15763,4573 Z" fill="#3dda97" fill-opacity="0.45" stroke="#3dda97" stroke-width="6"/>
<path id="L5_sb068" d="M17267,212 L17023,216 L17023,1084 L17246,1071 L17244,1039 L17265,581 L17264,521 L17272,512 L17271,389 L17276,382 L17274,320 L17269,315 Z" fill="#db99c2" fill-opacity="0.45" stroke="#db99c2" stroke-width="6"/>
<path id="L5_sb069" d="M18462,490 L18446,487 L18418,471 L18411,461 L18394,467 L18290,554 L18282,567 L18267,567 L18257,583 L18190,637 L18185,648 L18155,665 L17971,816 L17963,827 L17927,830 L17920,847 L17886,869 L17870,911 L17851,916 L17802,955 L17784,960 L17779,974 L17724,1021 L17731,1054 L17858,1055 L18257,1038 L18325,1040 L18361,897 L18370,880 L18378,819 L18383,814 L18412,692 L18420,681 L18432,608 L18443,580 Z" fill="#435f8a" fill-opacity="0.45" stroke="#435f8a" stroke-width="6"/>
<path id="L5_sb070" d="M10840,3794 L10785,3813 L10349,3989 L10318,3996 L10306,4006 L10301,4019 L10297,4015 L10262,4018 L10247,4030 L9781,4218 L9757,4219 L9705,4251 L9612,4285 L9593,4296 L9562,4304 L9549,4314 L9505,4325 L9491,4312 L9452,4328 L9447,4325 L9404,4332 L9383,4341 L9375,4354 L9333,4361 L9265,4388 L9236,4392 L9024,4536 L9004,4542 L9004,4557 L8997,4574 L9006,4582 L9026,4582 L9034,4595 L9044,4600 L9072,4597 L9185,4549 L9356,4489 L10262,4116 L10329,4093 L10341,4083 L10525,4014 L10593,4010 L10848,3915 L10869,3911 L10871,3905 Z" fill="#c54372" fill-opacity="0.45" stroke="#c54372" stroke-width="6"/>
<path id="L5_sb071" d="M18464,68 L18478,94 L18650,163 L18667,179 L18684,176 L18690,182 L18743,197 L18813,225 L18825,219 L18862,227 L18893,239 L18904,258 L18914,262 L18920,256 L18963,256 L18996,243 L19021,240 L19031,232 L19038,208 L19050,195 L19052,174 L19069,117 L19117,120 L19450,94 L19552,93 L19561,87 L19647,80 L19653,75 L19786,70 L19795,65 L19828,71 L19836,66 L19884,63 L19887,58 L19880,41 L19844,13 L19838,0 L18487,0 Z" fill="#dba24a" fill-opacity="0.45" stroke="#dba24a" stroke-width="6"/>
<path id="L5_sb072" d="M17234,211 L17436,204 L18100,116 L18114,100 L18179,93 L18187,86 L18211,99 L18460,68 L18486,0 L17267,0 L17265,151 L17233,161 Z" fill="#40a680" fill-opacity="0.45" stroke="#40a680" stroke-width="6"/>
<path id="L5_sb073" d="M22381,4826 L22339,4827 L22291,4858 L22267,4865 L22260,4877 L22165,4935 L22143,4957 L22139,4971 L22058,5001 L21975,5050 L21956,5081 L21946,5079 L21938,5087 L21875,5099 L21839,5120 L21812,5126 L21782,5160 L21777,5186 L21764,5213 L21756,5218 L21752,5244 L21728,5296 L21726,5311 L22214,5311 L22213,5286 L22229,5270 L22229,5251 L22240,5240 L22269,5150 L22273,5124 L22317,5011 L22323,4982 L22334,4975 L22357,4926 L22361,4904 L22369,4899 L22365,4894 L22368,4875 L22381,4843 Z" fill="#9cacb8" fill-opacity="0.45" stroke="#9cacb8" stroke-width="6"/>
<path id="L5_sb074" d="M10397,4533 L10392,4525 L10313,4508 L10257,4504 L10238,4507 L10227,4496 L10195,4501 L10013,4573 L9979,4583 L9969,4575 L9941,4580 L9667,4690 L9646,4720 L9465,4794 L9446,4825 L9409,4844 L9378,4874 L9326,4942 L9316,4965 L9247,5003 L9157,5038 L9166,5085 L9186,5083 L9675,4882 L9706,4874 L9712,4868 L9707,4863 L9699,4831 L9706,4822 L10175,4631 L10302,4585 L10313,4575 L10388,4548 Z" fill="#7f4d47" fill-opacity="0.45" stroke="#7f4d47" stroke-width="6"/>
<path id="L5_sb075" d="M19766,4097 L19772,4125 L19783,4143 L19865,4342 L19883,4334 L19954,4261 L19976,4249 L19981,4235 L20013,4202 L20005,4193 L19966,4176 L19960,4167 L19938,4163 L19794,4101 Z" fill="#dad6c4" fill-opacity="0.45" stroke="#dad6c4" stroke-width="6"/>
<path id="L5_sb076" d="M19851,4366 L19822,4387 L19822,4396 L19832,4405 L19874,4511 L19931,4609 L19973,4656 L20000,4665 L19986,4615 L19966,4595 L19940,4541 L19871,4365 L19866,4360 Z" fill="#6f7990" fill-opacity="0.45" stroke="#6f7990" stroke-width="6"/>
<path id="L5_seine_corridor" d="M17291,4182 L17223,4177 L17211,4163 L17196,4163 L17187,4172 L16937,4144 L16956,3680 L16802,3669 L16669,3672 L16658,3661 L16508,3656 L16380,3658 L16051,3645 L15760,3670 L15637,3654 L15618,3640 L15551,3638 L15412,3656 L15297,3679 L15281,3686 L15253,3689 L15108,3725 L15051,3734 L14470,3740 L14466,3736 L14443,3736 L14454,3747 L14450,3796 L14174,3806 L13947,3800 L13942,3794 L13947,3756 L13228,3677 L13217,3688 L13094,3678 L13075,3661 L12910,3646 L12903,3655 L12902,3677 L12908,3683 L12878,3990 L12546,3974 L11901,3921 L11897,3978 L11843,3983 L11767,3969 L11716,3965 L11692,3944 L11642,3937 L11634,3929 L11625,3929 L11595,3940 L11564,3944 L11443,3995 L11255,4061 L11132,4114 L11096,4120 L10968,4172 L10947,4175 L10875,3913 L10871,3910 L10593,4011 L10525,4015 L10341,4084 L10329,4094 L10262,4117 L9356,4490 L9185,4550 L9066,4600 L9041,4600 L9026,4583 L9006,4583 L8996,4574 L8962,4581 L8935,4548 L8875,4553 L8826,4545 L8808,4554 L8815,4572 L8836,4592 L8844,4628 L8854,4638 L8718,4727 L8698,4732 L8693,4743 L8635,4780 L8621,4795 L8599,4798 L8538,4846 L8508,4859 L8499,4875 L8172,5131 L8144,5159 L8144,5164 L8158,5172 L8292,5298 L8298,5311 L8572,5311 L8583,5294 L8668,5224 L8701,5211 L8747,5157 L8773,5152 L8906,5075 L8944,5061 L8964,5060 L8999,5075 L9008,5068 L9044,5008 L9054,5000 L9048,4961 L9043,4956 L9049,4948 L9079,4940 L9086,4934 L9092,4940 L9097,4961 L9117,5003 L9124,5034 L9155,5039 L9247,5002 L9316,4964 L9325,4942 L9377,4874 L9409,4843 L9446,4824 L9469,4790 L9646,4719 L9667,4689 L9922,4586 L9969,4574 L9979,4582 L10013,4572 L10195,4500 L10227,4495 L10238,4506 L10257,4503 L10313,4507 L10392,4524 L10398,4533 L10423,4531 L10500,4502 L10514,4543 L10557,4525 L10565,4512 L10697,4459 L10716,4471 L10729,4518 L10737,4525 L11019,4450 L11028,4442 L11062,4436 L11153,4406 L11178,4404 L11187,4409 L11204,4464 L11202,4485 L11137,4505 L11049,4524 L11098,4711 L11384,4630 L11396,4622 L11879,4493 L11903,4491 L11912,4484 L11978,4468 L12027,4460 L12032,4385 L12036,4378 L12154,4396 L12165,4403 L12234,4405 L12243,4259 L12248,4245 L12263,4230 L12303,4237 L12320,4233 L14006,4348 L14019,4138 L14038,4124 L14038,4116 L14048,4108 L14190,4115 L14434,4118 L14441,4125 L14464,4125 L14471,4118 L14549,4118 L14572,4140 L14707,4139 L14730,4116 L14814,4115 L14839,4138 L14850,4138 L14863,4151 L14888,4159 L14924,4159 L14972,4167 L14984,4160 L15014,4154 L15022,4156 L15030,4167 L15050,4167 L15061,4151 L15103,4126 L15124,4122 L15127,4113 L15459,4106 L15471,4114 L15500,4118 L15562,4139 L15577,4149 L15617,4159 L15850,4247 L15855,4256 L15874,4259 L15934,4287 L15939,4296 L15974,4301 L16034,3984 L16061,3984 L16388,3932 L16389,3955 L16376,4022 L16349,4261 L16458,4338 L16503,4355 L16508,4350 L16530,4352 L16573,4373 L16631,4389 L16638,4396 L16640,4418 L16645,4422 L16798,4458 L16852,4463 L17290,4533 Z M21299,5266 L21284,5254 L21278,5235 L21262,5210 L21169,5157 L21155,5146 L21149,5134 L21155,5060 L21119,4453 L21141,4448 L21531,4256 L21538,4247 L21528,4216 L21390,4188 L21371,4178 L21367,4155 L21162,3750 L21154,3725 L21074,3723 L21069,3635 L21069,3563 L21073,3556 L21069,3533 L21014,3449 L20996,3252 L21003,3237 L20966,3221 L20953,3210 L20918,3204 L20851,3212 L20843,3223 L20825,3227 L20813,3272 L20811,3325 L20650,3353 L20666,3516 L20672,3538 L20668,3565 L20673,3579 L20690,3801 L20656,4092 L20639,4159 L20637,4194 L20649,4201 L20660,4239 L20672,4421 L20845,4412 L20868,4796 L20868,4861 L20854,4925 L20849,4930 L20791,4901 L20762,4895 L20722,4851 L20682,4792 L20677,4772 L20661,4766 L20557,4644 L20552,4629 L20535,4623 L20392,4497 L20403,4482 L20441,4452 L20445,4436 L20439,4420 L20044,4185 L20029,4190 L19982,4235 L19977,4249 L19954,4262 L19883,4335 L19866,4343 L19860,4338 L19782,4143 L19771,4125 L19763,4094 L19724,4074 L19691,4068 L19671,4053 L19611,4029 L19601,4034 L19571,4028 L19568,4020 L19574,3995 L19586,3987 L19584,3961 L19525,3938 L19517,3929 L19463,3915 L19527,3604 L19527,3577 L19311,3581 L19315,3644 L19308,3813 L19304,3835 L19298,3841 L19282,3833 L19229,3776 L19221,3745 L19200,3698 L19186,3690 L19174,3640 L19172,3606 L19115,3594 L19156,3373 L19157,3348 L18977,3375 L18883,3404 L18845,3411 L18845,3419 L18837,3422 L18723,3413 L18650,3414 L18587,3421 L18582,3463 L18550,3595 L18462,3581 L18478,3482 L18477,3443 L18448,3442 L18421,3455 L18400,3457 L18388,3295 L18257,3298 L18083,3293 L18068,3299 L17807,3301 L17676,3310 L17580,3300 L17577,3323 L17569,3333 L17427,3430 L17406,3435 L17405,3483 L17383,3485 L17294,3480 L17295,3297 L17289,3291 L17267,3308 L17226,3377 L17154,3379 L17137,3373 L17055,3277 L17047,3258 L17027,3257 L17021,3263 L17019,3467 L16653,3453 L16642,3612 L16703,3614 L16708,3620 L16730,3616 L16905,3620 L17001,3632 L17298,3644 L17406,3658 L17409,3662 L17608,3695 L17701,3704 L17713,3714 L17758,3720 L17954,3764 L17983,3765 L17991,3773 L18000,3772 L18012,3753 L18063,3736 L18082,3783 L18103,3793 L18481,3859 L18490,3867 L18496,3861 L18498,3828 L18502,3823 L18611,3845 L18637,3843 L18646,3834 L18654,3842 L18650,3885 L18989,3937 L19039,3939 L19055,3949 L19241,3980 L19278,3982 L19282,3988 L19281,4010 L19267,4018 L19189,4012 L19174,4027 L19108,4020 L19068,4007 L19045,4006 L19040,4015 L19011,4213 L19195,4231 L19411,4264 L19531,4297 L19617,4360 L19632,4378 L19657,4474 L19657,4491 L19620,4488 L18512,4327 L18495,4449 L18487,4474 L18469,4469 L18404,4415 L18360,4334 L18339,4346 L18226,4436 L18191,4452 L18147,4453 L17890,4426 L17622,4406 L17612,4422 L17584,4424 L17422,4406 L17369,4405 L17359,4434 L17350,4512 L17363,4526 L17598,4550 L17602,4611 L17591,4732 L17935,4793 L18195,4810 L18851,4867 L18888,4872 L18892,4876 L18945,4605 L19510,4671 L19523,4677 L19518,4695 L19307,4912 L19289,4917 L19284,4934 L19254,4963 L19247,4980 L19255,4985 L19353,4989 L19430,5013 L19479,5040 L20031,5299 L20037,5311 L21277,5311 L21288,5279 Z M19851,4365 L19866,4359 L19872,4365 L19941,4541 L19967,4595 L19987,4615 L20002,4658 L20000,4666 L19973,4657 L19930,4609 L19873,4511 L19831,4405 L19821,4396 L19821,4387 Z" fill="#8655c5" fill-opacity="0.45" stroke="#8655c5" stroke-width="6"/>
</svg>